<svg width="16" height="16" viewBox="0 0 16 16" xmlns="http://www.w3.org/2000/svg"><title>ECF83A4A-ABFA-4D2F-8AAA-0B14B2F8ED56</title><path d="M10.868 7.906H8.931a1.083 1.083 0 0 0-.775-.775V4.38a.271.271 0 1 0-.542 0v2.75a1.084 1.084 0 0 0 .271 2.13c.504 0 .925-.346 1.046-.813h1.937a.271.271 0 1 0 0-.542zm-2.983.813a.543.543 0 1 1 .001-1.085.543.543 0 0 1-.001 1.085z"/><path d="M13.61 2.648l1.111 1.11a.27.27 0 0 0 .384 0 2.205 2.205 0 0 0 0-3.114 2.205 2.205 0 0 0-3.115 0 .27.27 0 0 0 0 .384l1.237 1.236-.46.461A7.292 7.292 0 0 0 7.884.855a7.292 7.292 0 0 0-4.88 1.87l-.462-.46L3.78 1.027a.27.27 0 0 0 0-.384 2.205 2.205 0 0 0-3.114 0 2.205 2.205 0 0 0 0 3.115.27.27 0 0 0 .383 0l1.111-1.11.455.454A7.294 7.294 0 0 0 .563 8.177a7.325 7.325 0 0 0 3.612 6.31l-.82.82a.27.27 0 1 0 .383.384l.935-.936c.97.476 2.06.744 3.212.744a7.277 7.277 0 0 0 3.212-.744l.935.936a.27.27 0 0 0 .384 0 .27.27 0 0 0 0-.384l-.821-.82a7.325 7.325 0 0 0 3.612-6.31 7.294 7.294 0 0 0-2.051-5.075l.454-.454zm1.11-1.62c.583.581.641 1.492.177 2.14L12.58.852a1.662 1.662 0 0 1 2.14.176zM.874 3.168a1.663 1.663 0 0 1 .176-2.14A1.663 1.663 0 0 1 3.19.852L.873 3.168zm7.012 11.789a6.787 6.787 0 0 1-6.78-6.78 6.787 6.787 0 0 1 6.78-6.78 6.787 6.787 0 0 1 6.78 6.78 6.787 6.787 0 0 1-6.78 6.78z"/><path d="M13.277 5.047a6.282 6.282 0 0 0-2.261-2.261c-.005-.003-.007-.008-.012-.01l-.015-.006a6.197 6.197 0 0 0-3.104-.83c-1.13 0-2.189.303-3.103.83-.005.003-.01.002-.015.005-.005.003-.007.008-.012.01a6.28 6.28 0 0 0-2.261 2.262c-.003.004-.008.007-.01.011-.003.005-.003.01-.005.015a6.198 6.198 0 0 0-.831 3.104c0 1.13.303 2.19.83 3.104l.006.015c.003.007.009.011.013.018a6.285 6.285 0 0 0 2.258 2.255l.012.01.021.009c.914.525 1.97.826 3.097.826a6.197 6.197 0 0 0 3.097-.826c.007-.003.015-.005.022-.01.005-.002.007-.006.012-.01a6.283 6.283 0 0 0 2.257-2.254c.005-.007.01-.011.014-.018.003-.005.003-.01.005-.015.527-.915.83-1.974.83-3.104 0-1.13-.303-2.189-.83-3.104-.003-.005-.002-.01-.005-.015-.003-.004-.008-.007-.01-.011zm-2.316 7.915l-.13-.224a.271.271 0 1 0-.469.272l.13.224a5.651 5.651 0 0 1-2.336.624v-.257a.271.271 0 1 0-.542 0v.257a5.647 5.647 0 0 1-2.335-.624l.13-.224a.271.271 0 0 0-.47-.272l-.13.224A5.73 5.73 0 0 1 3.1 11.253l.224-.13a.271.271 0 0 0-.271-.469l-.225.13a5.653 5.653 0 0 1-.624-2.335h.258a.271.271 0 1 0 0-.543h-.258a5.65 5.65 0 0 1 .624-2.335l.224.13a.27.27 0 0 0 .37-.1.271.271 0 0 0-.098-.37L3.1 5.1a5.733 5.733 0 0 1 1.709-1.71l.13.225a.272.272 0 0 0 .469-.271l-.13-.225a5.651 5.651 0 0 1 2.336-.624v.257a.271.271 0 1 0 .542 0v-.257a5.64 5.64 0 0 1 2.335.624l-.13.225a.271.271 0 0 0 .47.27l.13-.223A5.73 5.73 0 0 1 12.67 5.1l-.224.13a.271.271 0 0 0 .271.47l.225-.13a5.65 5.65 0 0 1 .624 2.335h-.258a.271.271 0 1 0 0 .542h.258a5.65 5.65 0 0 1-.624 2.335l-.225-.13a.27.27 0 1 0-.271.47l.224.13a5.72 5.72 0 0 1-1.709 1.71z"/></svg>