<svg width="16" height="16" viewBox="0 0 16 16" xmlns="http://www.w3.org/2000/svg"><title>7BD679A8-3B79-4754-94CF-684126458DE1</title><path d="M14.167 16H1.833A1.835 1.835 0 0 1 0 14.167v-11c0-1.012.822-1.834 1.833-1.834h12.334c1.011 0 1.833.822 1.833 1.834v11A1.835 1.835 0 0 1 14.167 16zM1.833 2.333A.834.834 0 0 0 1 3.167v11c0 .459.374.833.833.833h12.334a.834.834 0 0 0 .833-.833v-11a.834.834 0 0 0-.833-.834H1.833z"/><path d="M15.5 6.333H.5a.5.5 0 0 1 0-1h15a.5.5 0 0 1 0 1zM3.833 4a.5.5 0 0 1-.5-.5v-3a.5.5 0 0 1 1 0v3a.5.5 0 0 1-.5.5zm8.334 0a.5.5 0 0 1-.5-.5v-3a.5.5 0 0 1 1 0v3a.5.5 0 0 1-.5.5z"/></svg>