<svg width="64" height="64" viewBox="0 0 64 64" xmlns="http://www.w3.org/2000/svg"><title>0FA329BF-CF99-4E32-B30C-E1EABE3D55DB</title><path d="M63.457 8.604l-3.038-2.409 3.038-2.407c.472-.375.634-.96.412-1.49-.223-.53-.774-.874-1.403-.874h-12.57V.938C49.896.42 49.43 0 48.855 0c-.576 0-1.042.42-1.042.938v12.65l-8.556 4.183a2.758 2.758 0 0 0-.338-.985l-1.206-2.119c-.827-1.455-2.815-2.032-4.43-1.287l-.933.43c-.783.36-1.362.974-1.633 1.728a2.679 2.679 0 0 0 .204 2.261l1.205 2.12a3.09 3.09 0 0 0 1.187 1.16c-.64.776-.944 1.73-1.256 2.722l-.225.716c-.156.498.166 1.017.72 1.157.094.025.19.036.283.036.455 0 .872-.27 1.002-.683l.225-.715c.456-1.45.737-2.226 1.63-2.662l1.6-.783.197-.09c.066-.03.127-.065.19-.099l11.405-5.576c-.072 1.283-.84 2.496-2.103 3.187l-7.417 4.058a.406.406 0 0 0-.025.013l-2.31 1.263c-.49.27-.647.846-.348 1.29.281.417.867.565 1.345.356l-1.752 4.767-1.28.473-3.482 1.284 1.003-3.193c.156-.498-.165-1.017-.719-1.158-.554-.142-1.13.149-1.286.647l-1.585 5.048a.819.819 0 0 0-.038.204l-.415 6.861c-.012.262.05.756-.085 1.012L23.98 49.94h-3.348c-1.962 0-3.557 1.437-3.557 3.203v2.707a3.86 3.86 0 0 0-1.473-.288H7.099c-1.96 0-3.556 1.436-3.556 3.202v3.359H1.042c-.576 0-1.042.42-1.042.938S.466 64 1.042 64h61.423c.575 0 1.042-.42 1.042-.938s-.467-.938-1.042-.938h-2.71V37.947c0-1.766-1.595-3.202-3.556-3.202h-6.303V18.38c1.156-1.41 1.583-3.257 1.047-5.013a.974.974 0 0 0-.596-.615 1.146 1.146 0 0 0-.45-.074v-1.712h12.568c.63 0 1.18-.343 1.403-.873.223-.53.061-1.115-.411-1.49zM32.7 16.114c.099-.277.311-.502.599-.635l.932-.43a1.31 1.31 0 0 1 .549-.119c.44 0 .864.216 1.077.592l1.207 2.12c.281.495.099 1.095-.402 1.398l-.34.166-.716.33c-.592.274-1.322.062-1.626-.473l-1.206-2.119a.984.984 0 0 1-.074-.83zM30.607 50.23a3.849 3.849 0 0 0-1.143-.274l1.143-1.368v1.642zm4.947-7.558c.5-.54.64-1.172.75-1.68.029-.122.543-2.65.543-2.65s.487.273.537.292a.1.1 0 0 1 .064.082l.567 5.187h-3.491l1.03-1.231zm6.16-5.177l-.88 6.404h-.726l-.586-5.366c-.075-.688-.542-1.288-1.227-1.586l-1.048-.598.698-3.483s2.94 3.145 3.009 3.225c.608.712.817.997.76 1.404zm-11.253 4.54c.21-.571.309-1.152.292-1.742l.379-6.258 4.818-1.778-.876 4.368a.414.414 0 0 0-.007.036l-.724 3.612c-.095.374-.177.941-.436 1.25l-7.04 8.418h-.58l4.174-7.907zM5.626 58.764c0-.732.66-1.327 1.473-1.327h8.503c.812 0 1.473.595 1.473 1.326v3.36H5.626v-3.36zm13.532 0v-5.621c0-.732.661-1.327 1.474-1.327h8.502c.813 0 1.473.595 1.473 1.327v8.98H19.16v-3.36zm38.514-20.818v24.177H46.223V56.5c0-.518-.466-.938-1.041-.938-.576 0-1.043.42-1.043.938v5.624H32.691V47.105c0-.731.66-1.326 1.473-1.326h8.502c.813 0 1.473.595 1.473 1.326v4.702c0 .518.467.938 1.042.938.576 0 1.042-.42 1.042-.938v-13.86c0-.732.66-1.326 1.473-1.326h8.502c.813 0 1.474.595 1.474 1.326zm-9.976-3.202c-1.96 0-3.556 1.436-3.556 3.202v6.245a3.843 3.843 0 0 0-1.208-.279l.85-6.187c.167-1.206-.516-2.006-1.177-2.78-.07-.081-4.12-4.41-4.12-4.41l2.485-6.763 6.843-3.743v14.715h-.117zm2.2-25.655V3.3h11.022l-2.374 1.883a1.297 1.297 0 0 0-.509 1.013c0 .387.186.757.509 1.013l2.374 1.882H49.896z"/></svg>