<svg width="120" height="34" viewBox="0 0 120 34" xmlns="http://www.w3.org/2000/svg"><title>842B3797-5C62-4BAF-A52A-E2C911339522</title><path d="M6.913 0h6.763L6.734 32.66H0L6.913 0zM38.1 16.218l-3.474 16.441h-6.408l3.09-14.58c.092-.37.15-.734.194-1.098a8.17 8.17 0 0 0 .068-.962c0-.908-.262-1.584-.801-2.035-.53-.447-1.317-.675-2.371-.675-1.613 0-2.983.446-4.12 1.34-1.127.899-1.87 2.128-2.21 3.696L19.03 32.66h-6.452l5.14-24.12h6.32l-.636 3.036c1.259-1.234 2.575-2.157 3.97-2.764a10.91 10.91 0 0 1 4.43-.908c2.07 0 3.702.476 4.907 1.437 1.205.962 1.812 2.273 1.812 3.93 0 .393-.029.81-.092 1.248-.058.442-.165 1-.33 1.7m18.136 4.634c-1.045.461-2.327.84-3.824 1.141-1.506.301-2.4.49-2.681.568-1.02.311-1.803.802-2.357 1.477-.544.675-.816 1.481-.816 2.429 0 .655.233 1.18.71 1.549.47.37 1.127.554 1.977.554 1.613 0 3.012-.5 4.192-1.501 1.181-1 1.953-2.332 2.308-4.002l.49-2.215zm7.501-6.363l-2.91 13.702a19.4 19.4 0 0 0-.165 1.068 5.8 5.8 0 0 0-.054.758c0 .37.054.666.175.884.122.228.335.447.641.666l-.242 1.088H54.5a2.415 2.415 0 0 0-.093-.355c-.121-.573-.18-.976-.18-1.195 0-.136.015-.316.04-.544.023-.233.053-.5.096-.811a10.169 10.169 0 0 1-3.648 2.798c-1.414.646-2.969.971-4.674.971-1.817 0-3.265-.461-4.338-1.38-1.07-.917-1.604-2.151-1.604-3.7 0-3.022.817-5.363 2.454-7.019 1.627-1.651 4.193-2.74 7.68-3.254a88.187 88.187 0 0 1 2.309-.335c3.216-.37 4.824-1.438 4.824-3.211 0-.665-.263-1.151-.802-1.452-.53-.301-1.38-.457-2.55-.457-1.332 0-2.41.296-3.217.894-.816.597-1.287 1.438-1.423 2.511h-6.092c.432-2.603 1.68-4.663 3.755-6.178 2.065-1.516 4.679-2.273 7.836-2.273 2.857 0 5.073.461 6.656 1.384 1.584.923 2.376 2.22 2.376 3.876 0 .267-.015.53-.044.796a5.621 5.621 0 0 1-.126.768M72.87 2h6.451l-1.38 6.543h4.014l-.953 4.541h-4.056l-2.808 13.348c0 .077-.015.174-.044.296-.03.126-.044.214-.044.257 0 .355.175.612.53.763.354.16.967.233 1.841.233h1.4l-1.045 4.862c-.37.015-.865.03-1.482.044-1.122.029-1.856.048-2.196.048-2.07 0-3.551-.281-4.45-.84-.904-.568-1.356-1.481-1.356-2.754 0-.355.04-.782.112-1.287.068-.5.19-1.142.355-1.928l2.764-13.037h-3.415l.952-4.541h3.459L72.869 2zm30.894 20.303H88.217a18.2 18.2 0 0 0-.131.952 8.88 8.88 0 0 0-.044.816c0 1.302.311 2.288.938 2.953.626.666 1.56 1 2.788 1 1.04 0 1.915-.213 2.653-.626.734-.422 1.409-1.107 2.03-2.054h6.453c-1.137 2.53-2.833 4.512-5.087 5.96-2.26 1.447-4.761 2.17-7.526 2.17-2.74 0-4.902-.81-6.49-2.438-1.589-1.627-2.386-3.813-2.386-6.572 0-1.967.35-4.007 1.045-6.11.69-2.103 1.613-3.915 2.77-5.43 1.325-1.724 2.875-3.036 4.634-3.92 1.759-.884 3.697-1.33 5.806-1.33 2.842 0 5.057.747 6.656 2.253 1.598 1.5 2.39 3.58 2.39 6.246 0 .695-.068 1.491-.21 2.395-.135.908-.383 2.152-.742 3.735m-5.68-4.226c.044-.354.083-.665.107-.937.024-.272.03-.49.03-.651 0-1.073-.312-1.914-.938-2.516-.632-.597-1.516-.894-2.653-.894-1.317 0-2.439.423-3.372 1.273-.932.85-1.642 2.088-2.128 3.725h8.954zM113.13 0h6.452l-6.967 32.66h-6.437L113.13 0z" fill="#FFF"/></svg>