<svg width="12" height="16" viewBox="0 0 12 16" xmlns="http://www.w3.org/2000/svg"><title>06DE618E-330F-492B-A9B8-2885A2241193</title><g fill="#FFF"><path d="M5.813 0A5.801 5.801 0 0 0 .018 5.795c0 3.965 5.186 9.786 5.406 10.032.208.23.57.23.777 0 .22-.246 5.406-6.067 5.406-10.032C11.607 2.599 9.007 0 5.813 0zm0 14.679C4.066 12.606 1.06 8.516 1.06 5.795a4.756 4.756 0 0 1 4.752-4.752 4.756 4.756 0 0 1 4.75 4.752c0 2.721-3.005 6.81-4.75 8.884z"/><path d="M5.813 2.88a2.919 2.919 0 0 0-2.916 2.915A2.919 2.919 0 0 0 5.813 8.71a2.919 2.919 0 0 0 2.915-2.915 2.919 2.919 0 0 0-2.915-2.916zm0 4.787A1.874 1.874 0 0 1 3.94 5.795c0-1.033.84-1.872 1.872-1.872s1.871.84 1.871 1.872-.84 1.872-1.872 1.872z"/></g></svg>