<svg width="16" height="16" viewBox="0 0 16 16" xmlns="http://www.w3.org/2000/svg"><title>EA82AE3A-EBC4-457C-9A85-217265C1261D</title><path d="M15.981 1.194A1.244 1.244 0 0 0 14.806.02c-1.283-.07-3.792-.002-6.192 1.239-1.223.633-2.517 1.706-3.55 2.943l-.037.046-2.343.181c-.386.03-.73.232-.943.555L.143 7.4a.853.853 0 0 0-.07.819.853.853 0 0 0 .653.5l1.974.306-.02.115c-.066.393.064.797.348 1.08l2.75 2.75a1.246 1.246 0 0 0 1.081.35l.115-.021.306 1.974a.853.853 0 0 0 .847.726.854.854 0 0 0 .472-.143l2.418-1.598c.323-.213.525-.557.555-.943l.18-2.343.047-.037c1.237-1.033 2.31-2.327 2.943-3.55 1.241-2.4 1.31-4.91 1.24-6.192zm-5.48 12.283l-2.314 1.529-.298-1.924a10.501 10.501 0 0 0 2.866-1.364l-.118 1.526a.305.305 0 0 1-.137.233zm-4.06-1.168l-2.75-2.75a.304.304 0 0 1-.086-.264c.081-.489.208-.954.366-1.392l4.125 4.126a8.098 8.098 0 0 1-1.391.366.304.304 0 0 1-.264-.086zM2.756 5.363l1.526-.118a10.5 10.5 0 0 0-1.364 2.866L.994 7.813 2.524 5.5a.305.305 0 0 1 .232-.137zm8.442 4.853a10.747 10.747 0 0 1-2.17 1.419L4.365 6.972c.433-.885.962-1.621 1.42-2.17.955-1.146 2.143-2.134 3.26-2.711C11.247.95 13.567.89 14.755.955a.307.307 0 0 1 .29.29c.065 1.188.003 3.508-1.136 5.71-.577 1.117-1.565 2.305-2.71 3.26z"/><path d="M10.968 7.355c.594 0 1.19-.227 1.642-.68.439-.439.68-1.022.68-1.643a2.324 2.324 0 0 0-4.645 0c0 .62.242 1.204.68 1.643.453.453 1.048.68 1.643.68zm-.986-3.309c.272-.271.629-.407.986-.407a1.389 1.389 0 0 1 1.393 1.393 1.395 1.395 0 1 1-2.379-.986zM.466 13.161a.463.463 0 0 0 .329-.136l1.52-1.52a.466.466 0 1 0-.658-.659l-1.52 1.52a.466.466 0 0 0 .329.795zm3.268-.895a.468.468 0 0 0-.661 0L.137 15.202a.468.468 0 1 0 .661.661l2.936-2.936a.468.468 0 0 0 0-.661zm.761 1.419l-1.52 1.52a.466.466 0 1 0 .659.659l1.52-1.52a.466.466 0 1 0-.659-.66z"/></svg>