<svg width="64" height="64" viewBox="0 0 64 64" xmlns="http://www.w3.org/2000/svg"><title>73F8EA91-A167-4050-9CF3-C2359C408416</title><path d="M46.88 28.14a1.51 1.51 0 0 0-2.809 1.11 16.506 16.506 0 0 1 1.156 6.097c0 9.143-7.438 16.58-16.58 16.58-9.144 0-16.583-7.437-16.583-16.58 0-9.142 7.44-16.58 16.583-16.58 2.112 0 4.166.39 6.106 1.163a1.51 1.51 0 1 0 1.117-2.806 19.448 19.448 0 0 0-7.223-1.377c-10.809 0-19.602 8.792-19.602 19.6 0 10.808 8.793 19.6 19.602 19.6 10.807 0 19.6-8.792 19.6-19.6 0-2.486-.46-4.91-1.368-7.207z"/><path d="M56.188 27.45a1.51 1.51 0 0 0-2.903.832 25.68 25.68 0 0 1 .986 7.065c0 14.13-11.495 25.627-25.625 25.627S3.02 49.478 3.02 35.347c0-14.13 11.496-25.627 25.627-25.627 2.405 0 4.787.334 7.077.991a1.51 1.51 0 1 0 .833-2.902 28.651 28.651 0 0 0-7.91-1.109C12.85 6.7 0 19.551 0 35.347c0 15.796 12.85 28.647 28.646 28.647 15.795 0 28.645-12.851 28.645-28.647 0-2.681-.37-5.338-1.103-7.896z"/><path d="M39.16 34.425a1.51 1.51 0 1 0-3.008.268c.019.216.029.436.029.654 0 4.155-3.38 7.535-7.535 7.535s-7.536-3.38-7.536-7.535 3.381-7.536 7.537-7.536c.232 0 .459.01.675.03a1.51 1.51 0 1 0 .277-3.007 10.435 10.435 0 0 0-.952-.043c-5.821 0-10.556 4.735-10.556 10.556 0 5.82 4.735 10.554 10.556 10.554 5.82 0 10.554-4.734 10.554-10.554 0-.308-.014-.618-.041-.922z"/><path d="M63.769 10.158a3.012 3.012 0 0 0-2.791-1.865h-5.265V3.03A3.012 3.012 0 0 0 53.848.238a3.01 3.01 0 0 0-3.29.655L41.76 9.69a4.498 4.498 0 0 0-1.327 3.202v8.544l-12.27 12.272a1.51 1.51 0 0 0 2.134 2.135L42.57 23.572h8.544a4.5 4.5 0 0 0 3.203-1.326l8.797-8.798a3.01 3.01 0 0 0 .655-3.29zm-20.315 2.734a1.5 1.5 0 0 1 .442-1.067l8.797-8.796v6.149l-9.239 9.239v-5.525zm8.727 7.218c-.28.28-.67.442-1.067.442H45.59l9.238-9.239 6.15.001-8.797 8.796z"/></svg>