<svg width="64" height="64" viewBox="0 0 64 64" xmlns="http://www.w3.org/2000/svg"><title>B12C0852-0FC2-475C-B083-63D346DE32D7</title><path d="M64 26.839h-2.32l-3.457 1.819a5.132 5.132 0 0 0-1.23-.506l-4.349-1.088v-.495a7.249 7.249 0 0 0 3.098-5.924v-1.804c0-4.01-3.142-7.366-7.004-7.483a7.741 7.741 0 0 0-.583.011l1.127-2.64-5.466-5.464-3.222 2.097A17.46 17.46 0 0 0 36.73 3.76L35.934 0h-7.867l-.796 3.76a17.44 17.44 0 0 0-3.864 1.603l-3.222-2.097-5.462 5.462 1.109 2.641c-.043-.002-.083-.01-.125-.01a7.172 7.172 0 0 0-5.253 2.037 7.16 7.16 0 0 0-2.196 5.185v2.064a7.246 7.246 0 0 0 3.097 5.923v.496l-2.837.709-5.141-2.999H0v21.39l10.155 3.384h1.978l.247-.865 3.113 1.869a3.214 3.214 0 0 0 3.1 3.114 3.214 3.214 0 0 0 3.096 3.097 3.214 3.214 0 0 0 3.097 3.096 3.22 3.22 0 0 0 3.21 3.109 3.25 3.25 0 0 0 1.81-.56l.914.808a3.143 3.143 0 0 0 2.077.784h.19a3.143 3.143 0 0 0 3.138-3.1 3.14 3.14 0 0 0 3.097-3.098 3.14 3.14 0 0 0 3.097-3.1 3.174 3.174 0 0 0 3.085-3.476L64 41.928v-15.09zM53.677 18.84v1.804c0 1.832-.99 3.544-2.583 4.467l-.516.298.004 3.267 5.157 1.288-11.352 5.975v-2.78c0-1.388-.56-2.659-1.478-3.598l3.543-.885v-3.27l-.516-.297a5.176 5.176 0 0 1-2.581-4.465V18.58c0-1.408.556-2.725 1.568-3.705a5.09 5.09 0 0 1 3.753-1.454c2.757.083 5.001 2.514 5.001 5.419zm-20.12 16.288l-4.673-1.494a12.748 12.748 0 0 0-6.615-.301l-.592.13v-.305c0-1.423.966-2.659 2.346-3.005l5.912-1.477v-3.27l-.515-.297a5.176 5.176 0 0 1-2.581-4.465V18.58c0-1.408.556-2.725 1.568-3.705a5.104 5.104 0 0 1 3.753-1.454c2.757.083 5.001 2.514 5.001 5.419v1.804c0 1.832-.99 3.544-2.583 4.467l-.517.298.005 3.267 5.911 1.477a3.095 3.095 0 0 1 2.346 3.005v3.868l-.255.134h-.633l-6.346-1.813c-.5-.142-1.015-.2-1.533-.22zm-11.648-19.68A11.39 11.39 0 0 1 32 9.29c4.21 0 8.096 2.371 10.049 6.076a7.18 7.18 0 0 0-.759 3.215v2.064a7.246 7.246 0 0 0 3.097 5.923v.496l-4.129 1.033-4.13-1.033v-.495a7.249 7.249 0 0 0 3.098-5.924v-1.804c0-4.01-3.142-7.366-7.004-7.483a7.172 7.172 0 0 0-5.253 2.037 7.166 7.166 0 0 0-2.195 5.186v2.064a7.246 7.246 0 0 0 3.097 5.923v.496l-4.13 1.033-4.13-1.033v-.495a7.249 7.249 0 0 0 3.099-5.924v-1.804a7.608 7.608 0 0 0-.801-3.391zm-4.749-6.24l3.298-3.298 2.903 1.889.555-.34a15.404 15.404 0 0 1 4.47-1.855l.635-.152.718-3.386h4.52l.717 3.385.635.152a15.419 15.419 0 0 1 4.47 1.854l.555.34 2.903-1.888 3.294 3.295-1.171 2.741a7.215 7.215 0 0 0-2.18 1.449c-.041.041-.078.085-.12.128C40.933 9.655 36.634 7.226 32 7.226c-4.666 0-8.977 2.451-11.403 6.357a7.281 7.281 0 0 0-2.277-1.615l-1.16-2.761zm-3.742 19.47v-3.27l-.515-.297a5.176 5.176 0 0 1-2.581-4.465v-2.064c0-1.408.556-2.725 1.568-3.705a5.095 5.095 0 0 1 3.753-1.454c2.757.083 5.001 2.514 5.001 5.419v1.804c0 1.832-.99 3.544-2.584 4.467l-.516.298.004 3.267 3.542.885a5.136 5.136 0 0 0-1.478 3.597v.765l-3.22.716.084-.293.04-1.907-5.445-3.176 2.347-.587zM2.065 26.839h.752l7.424 4.33-3.746 14.983-4.43-1.477V26.839zm8.425 20.645l-2.032-.677 3.64-14.555 2.354 1.373v.295l-3.875 13.564h-.087zm7.058 2.972c0-.305.123-.603.34-.819l1.814-1.814a1.159 1.159 0 0 1 1.637 1.637l-1.815 1.814a1.159 1.159 0 0 1-1.976-.819zm3.097 3.096c0-.304.123-.602.339-.818l1.814-1.815a1.159 1.159 0 0 1 1.637 1.637l-1.814 1.815a1.159 1.159 0 0 1-1.976-.819zm3.097 3.097c0-.304.123-.603.339-.818l1.814-1.815a1.159 1.159 0 0 1 1.637 1.637l-1.814 1.815a1.159 1.159 0 0 1-1.976-.819zm4.254 4.254a1.159 1.159 0 0 1-.819-1.976l1.815-1.814a1.159 1.159 0 0 1 1.637 1.637l-1.814 1.815a1.165 1.165 0 0 1-.819.338zm4.992 1.032h-.191a1.07 1.07 0 0 1-.711-.27l-.772-.68.775-.775a3.21 3.21 0 0 0 .65-.96l.938.782a1.078 1.078 0 0 1-.69 1.904zm9.257-9.29h-.178c-.26 0-.513-.092-.71-.258l-5.598-4.665-1.323 1.587 5.436 4.53a1.077 1.077 0 0 1-.69 1.903h-.226c-.25 0-.495-.089-.688-.25L32.66 50.82l-1.323 1.587 5.436 4.53a1.078 1.078 0 0 1-.689 1.902c-.396 0-.783-.14-1.087-.393l-2.303-1.92a3.211 3.211 0 0 0-2.772-1.805 3.214 3.214 0 0 0-3.097-3.097 3.214 3.214 0 0 0-3.097-3.096 3.218 3.218 0 0 0-3.209-3.109c-.848 0-1.678.344-2.278.944l-1.815 1.814c-.108.109-.198.232-.289.354l-3.17-1.903 2.779-9.729 6.969-1.55a10.634 10.634 0 0 1 5.538.251l1.52.487-5.155 2.577a3.44 3.44 0 0 0-1.91 3.093v.204a3.462 3.462 0 0 0 3.459 3.458 3.45 3.45 0 0 0 1.779-.493l3.843-2.305a2.13 2.13 0 0 1 2.476.238l8.721 7.85a1.11 1.11 0 0 1-.742 1.936zm19.69-11.993l-17.39 8.696a2.867 2.867 0 0 0-.178-.172l-8.72-7.85a4.158 4.158 0 0 0-4.92-.476l-3.845 2.307a1.394 1.394 0 0 1-2.108-1.196v-.204c0-.532.296-1.009.77-1.246l5.758-2.879a4.486 4.486 0 0 1 3.218-.298l6.487 1.852 1.57.04 19.358-10.189v11.615z"/></svg>