<svg width="64" height="64" viewBox="0 0 64 64" xmlns="http://www.w3.org/2000/svg"><title>911AB601-D2C7-40A5-BFA3-34E2935E5033</title><path d="M.04 59.698l.845 1.866 30.36-12.334 5.29.622 1.904 5.7-2.539 2.384c-.952.83-1.269 2.176-.74 3.42l1.058 2.591 17.56-6.736-.952-2.488c-.423-1.244-1.587-1.969-2.962-1.969h-3.491l-1.904-4.457 4.654-2.28c1.481-.726 2.116-2.384 1.587-3.835l-6.03-15.857c-.634-1.659-2.433-2.384-4.125-1.866 0 0-.106 0-.106.104l-4.443 1.865-.635-1.555 2.434-2.798a12.085 12.085 0 0 0 3.067-6.633l3.068-3.627c2.01-2.28 1.587-5.7-.74-7.67-.424-.311-.847-.622-1.27-.83-1.163-.517-2.327-.621-3.596-.31l-.318-.933C37.487.414 35.583-.415 33.996.206l-22.32 7.878c-1.693.621-2.54 2.383-1.904 3.938v.104l.529 1.347c-2.75 1.244-4.02 4.353-3.069 7.048.741 2.073 2.645 3.524 4.867 3.834l4.972.518c2.01 1.452 4.442 2.385 6.876 2.592l3.49.31.635 1.555c-.74.415-1.27 1.14-1.48 2.073l-.741 3.524L.039 45.187l.741 1.97 14.81-5.804 3.596 10.572L.04 59.698zm50.67-4.353l.212.622-13.54 5.286-.318-.622c-.106-.415 0-.83.212-1.14l3.596-3.317 4.549-1.45h4.231c.53 0 .847.206 1.058.621zm-6.664-2.488l-3.808 1.244-1.375-3.938c.634.103 1.163 0 1.692-.311l1.798-.83 1.693 3.835zm-2.856-26.74c.528-.207 1.163 0 1.375.519l.846 2.176-5.183 1.659.635 1.969 5.183-1.659 1.27 3.317-4.973 1.658.635 1.97 5.078-1.659 1.27 3.317-4.867 1.554.635 1.97 4.972-1.659.529 1.348c.211.518 0 1.036-.53 1.244l-8.356 4.042c-.212.103-.423.103-.635.103l-7.193-.83-3.915-11.503.741-3.835c.106-.31.317-.622.635-.726l11.848-4.975zm-.106-20.936a3.407 3.407 0 0 1 1.798 4.457c-.106.31-.317.518-.529.83l-1.27 1.554c-.105-1.037-.316-1.97-.634-3.006l-1.375-4.042c.74-.104 1.375 0 2.01.207zM9.348 20.003c-.634-1.763.106-3.628 1.799-4.457l1.48 3.524a14.95 14.95 0 0 0 2.116 3.524l-2.221-.208c-1.481-.104-2.75-1.036-3.174-2.383zm15.022 5.492c-4.337-.414-8.146-3.109-9.733-7.15l-2.75-6.841c-.211-.519 0-1.14.53-1.348l22.32-7.877a1.19 1.19 0 0 1 .846 0c.211.104.423.311.53.622l2.326 6.84c1.27 3.835.424 7.981-2.221 10.987l-3.28 3.731.952 2.487-3.808 1.555-1.058-2.591-4.654-.415zM17.6 40.524l2.433-.933 2.644 7.877 2.01-.622-2.75-8.084 4.231-1.658 3.597 10.468-8.569 3.524L17.6 40.524zm34.697-22.387v1.036h2.116v-1.036c0-2.902 2.327-5.183 5.289-5.183v-2.072c-2.962 0-5.29-2.28-5.29-5.183V4.663h-2.115v1.036c0 2.903-2.327 5.183-5.29 5.183v2.072c2.963 0 5.29 2.28 5.29 5.183zm1.058-8.706a7.218 7.218 0 0 0 2.539 2.487 7.224 7.224 0 0 0-2.54 2.488 7.224 7.224 0 0 0-2.538-2.488 7.218 7.218 0 0 0 2.539-2.487z"/><path d="M5.752 38.865v1.037h2.115v-1.037c0-2.901 2.328-5.182 5.29-5.182V31.61c-2.962 0-5.29-2.28-5.29-5.182v-1.036H5.752v1.036c0 2.902-2.327 5.182-5.29 5.182v2.073c2.963 0 5.29 2.28 5.29 5.182zm1.057-8.706a7.218 7.218 0 0 0 2.54 2.488 7.224 7.224 0 0 0-2.54 2.488 7.224 7.224 0 0 0-2.538-2.488 7.218 7.218 0 0 0 2.538-2.488zm51.835-3.731v-1.036h-2.116v1.036c0 2.902-2.327 5.182-5.289 5.182v2.073c2.962 0 5.29 2.28 5.29 5.182v1.037h2.115v-1.037c0-2.901 2.328-5.182 5.29-5.182V31.61c-2.962 0-5.29-2.28-5.29-5.182zm-1.058 8.707a7.224 7.224 0 0 0-2.538-2.488 7.218 7.218 0 0 0 2.538-2.488 7.218 7.218 0 0 0 2.539 2.488 7.224 7.224 0 0 0-2.539 2.488zM31.458 18.448l1.48 1.45c5.819-5.7.424-14.406.106-14.717l-1.798 1.14c.106 0 4.866 7.567.212 12.127z"/></svg>