<?xml version="1.0" encoding="UTF-8"?>
<svg width="16px" height="16px" viewBox="0 0 16 16" version="1.1" xmlns="http://www.w3.org/2000/svg" xmlns:xlink="http://www.w3.org/1999/xlink">
    <!-- Generator: sketchtool 61.2 (101010) - https://sketch.com -->
    <title>ECF83A4A-ABFA-4D2F-8AAA-0B14B2F8ED56</title>
    <desc>Created with sketchtool.</desc>
    <g id="Welcome" stroke="none" stroke-width="1" fill="none" fill-rule="evenodd">
        <g id="Interna-curso" transform="translate(-992.000000, -515.000000)" fill="#000000" fill-rule="nonzero">
            <g id="barra" transform="translate(280.000000, 488.000000)">
                <g id="Group-4-Copy-2" transform="translate(712.000000, 25.000000)">
                    <g id="alarm-clock" transform="translate(0.000000, 2.000000)">
                        <path d="M10.8680678,7.90589831 L8.93125424,7.90589831 C8.83254237,7.52650847 8.53559322,7.22955932 8.15620339,7.13084746 L8.15620339,4.38047458 C8.15620339,4.23050847 8.03471186,4.10928814 7.88501695,4.10928814 C7.73532203,4.10928814 7.61383051,4.23050847 7.61383051,4.38047458 L7.61383051,7.13084746 C7.14738983,7.2520678 6.80027119,7.67294915 6.80027119,8.17708475 C6.80027119,8.77532203 7.28677966,9.26183051 7.88501695,9.26183051 C8.38888136,9.26183051 8.8100339,8.91471186 8.93125424,8.44827119 L10.8680678,8.44827119 C11.0177627,8.44827119 11.1392542,8.32705085 11.1392542,8.17708475 C11.1392542,8.02711864 11.0180339,7.90589831 10.8680678,7.90589831 Z M7.88501695,8.71945763 C7.58589831,8.71945763 7.34264407,8.47620339 7.34264407,8.17708475 C7.34264407,7.8779661 7.58589831,7.63471186 7.88501695,7.63471186 C8.18413559,7.63471186 8.42738983,7.8779661 8.42738983,8.17708475 C8.42738983,8.47620339 8.18413559,8.71945763 7.88501695,8.71945763 Z" id="Shape"></path>
                        <path d="M13.6103051,2.64786441 L14.7210847,3.75864407 C14.7720678,3.80962712 14.8409492,3.83810169 14.9128136,3.83810169 C14.984678,3.83810169 15.0538305,3.80962712 15.1045424,3.75864407 C15.9633898,2.9000678 15.9633898,1.50264407 15.1045424,0.644067797 C14.2459661,-0.214508475 12.8485424,-0.214508475 11.9899661,0.644067797 C11.9389831,0.695050847 11.9105085,0.763661017 11.9105085,0.83579661 C11.9105085,0.907932203 11.9389831,0.976813559 11.9899661,1.02752542 L13.2268475,2.26440678 L12.7661017,2.72515254 C11.4698305,1.56338983 9.75891525,0.855050847 7.88528814,0.855050847 C6.01166102,0.855050847 4.30074576,1.56338983 3.00447458,2.72515254 L2.54345763,2.26440678 L3.78033898,1.02752542 C3.83132203,0.976542373 3.85979661,0.907932203 3.85979661,0.83579661 C3.85979661,0.763661017 3.83132203,0.694779661 3.78033898,0.644067797 C2.92176271,-0.214508475 1.52433898,-0.214508475 0.665762712,0.644067797 C-0.193084746,1.50264407 -0.193084746,2.9000678 0.665762712,3.75864407 C0.716745763,3.80962712 0.785627119,3.83810169 0.857491525,3.83810169 C0.929355932,3.83810169 0.998508475,3.80962712 1.04922034,3.75864407 L2.16,2.64786441 L2.61450847,3.10237288 C1.34562712,4.41952542 0.562983051,6.20827119 0.562983051,8.17708475 C0.562983051,10.8612881 2.01572881,13.2113898 4.17545763,14.4862373 L3.35430508,15.3073898 C3.24827119,15.4134237 3.24827119,15.5848136 3.35430508,15.6908475 C3.40718644,15.7437288 3.47661017,15.7703051 3.5460339,15.7703051 C3.61545763,15.7703051 3.68488136,15.7437288 3.73776271,15.6908475 L4.67335593,14.7552542 C5.64366102,15.2309153 6.73355932,15.4991186 7.88501695,15.4991186 C9.03647458,15.4991186 10.1263729,15.2309153 11.096678,14.7552542 L12.0322712,15.6908475 C12.0851525,15.7437288 12.1545763,15.7703051 12.224,15.7703051 C12.2934237,15.7703051 12.3628475,15.7437288 12.4157288,15.6908475 C12.5217627,15.5848136 12.5217627,15.4134237 12.4157288,15.3073898 L11.5945763,14.4862373 C13.7543051,13.2113898 15.2070508,10.8612881 15.2070508,8.17708475 C15.2070508,6.20827119 14.4244068,4.41952542 13.1555254,3.10237288 L13.6103051,2.64786441 Z M14.7208136,1.02752542 C15.3027797,1.60949153 15.3613559,2.51959322 14.8968136,3.168 L12.5806102,0.851525424 C13.2284746,0.386983051 14.1388475,0.445288136 14.7208136,1.02752542 Z M0.873220339,3.16772881 C0.408677966,2.51959322 0.467254237,1.60949153 1.04922034,1.02752542 C1.63118644,0.445559322 2.54155932,0.387254237 3.18942373,0.851525424 L0.873220339,3.16772881 Z M7.88501695,14.9567458 C4.14671186,14.9567458 1.10535593,11.9153898 1.10535593,8.17708475 C1.10535593,4.43877966 4.14671186,1.39742373 7.88501695,1.39742373 C11.623322,1.39742373 14.664678,4.43877966 14.664678,8.17708475 C14.664678,11.9153898 11.6235932,14.9567458 7.88501695,14.9567458 Z" id="Shape"></path>
                        <path d="M13.2767458,5.04677966 C12.731661,4.11145763 11.9506441,3.33071186 11.0155932,2.78562712 C11.0112542,2.78264407 11.0085424,2.7780339 11.0039322,2.77532203 C10.9990508,2.77261017 10.9938983,2.77261017 10.9890169,2.77016949 C10.0743051,2.24298305 9.01477966,1.93952542 7.88528814,1.93952542 C6.75579661,1.93952542 5.69627119,2.24271186 4.78155932,2.77016949 C4.77667797,2.77261017 4.77125424,2.77233898 4.76664407,2.77532203 C4.7620339,2.7780339 4.75959322,2.78264407 4.75498305,2.78562712 C3.81966102,3.33071186 3.03891525,4.11145763 2.49383051,5.04677966 C2.49084746,5.05138983 2.48623729,5.05383051 2.48352542,5.05844068 C2.48081356,5.06305085 2.48081356,5.06847458 2.47864407,5.07335593 C1.95145763,5.98833898 1.648,7.04759322 1.648,8.17708475 C1.648,9.30657627 1.95145763,10.3661017 2.47864407,11.2808136 C2.48108475,11.2856949 2.48081356,11.2908475 2.48352542,11.2957288 C2.48732203,11.3025085 2.49301695,11.3073898 2.49735593,11.3136271 C3.04244068,12.2459661 3.82183051,13.0245424 4.75498305,13.5685424 C4.75932203,13.5715254 4.7620339,13.5761356 4.76664407,13.5788475 C4.77369492,13.5829153 4.78128814,13.5845424 4.78833898,13.5877966 C5.70169492,14.1125424 6.75850847,14.4143729 7.88528814,14.4143729 C9.0120678,14.4143729 10.0688814,14.1125424 10.9822373,13.5877966 C10.9892881,13.5845424 10.9968814,13.5829153 11.0039322,13.5788475 C11.0085424,13.5761356 11.0109831,13.5715254 11.0155932,13.5685424 C11.9487458,13.0245424 12.7281356,12.2462373 13.2732203,11.3136271 C13.2775593,11.3073898 13.2832542,11.3025085 13.2870508,11.2957288 C13.2897627,11.2911186 13.2897627,11.2856949 13.2919322,11.2808136 C13.8191186,10.3658305 14.1225763,9.30657627 14.1225763,8.17708475 C14.1225763,7.04759322 13.8191186,5.9880678 13.2919322,5.07335593 C13.2894915,5.06847458 13.2897627,5.06332203 13.2870508,5.05844068 C13.2840678,5.05383051 13.2794576,5.05111864 13.2767458,5.04677966 Z M10.9610847,12.9624407 L10.8317288,12.7384407 C10.7566102,12.6088136 10.5909153,12.5640678 10.4612881,12.6391864 C10.331661,12.7140339 10.2871864,12.88 10.3620339,13.0096271 L10.4919322,13.2344407 C9.7860339,13.5997288 8.99498305,13.8183051 8.15647458,13.8581695 L8.15647458,13.6008136 C8.15647458,13.4508475 8.03498305,13.3296271 7.88528814,13.3296271 C7.73559322,13.3296271 7.61410169,13.4508475 7.61410169,13.6008136 L7.61410169,13.8581695 C6.77559322,13.8185763 5.98454237,13.5997288 5.27864407,13.2344407 L5.40854237,13.0096271 C5.48338983,12.8797288 5.43891525,12.7140339 5.30928814,12.6391864 C5.17884746,12.564339 5.01369492,12.6090847 4.93884746,12.7384407 L4.80949153,12.9624407 C4.12474576,12.5209492 3.54169492,11.9376271 3.10020339,11.2531525 L3.32420339,11.1237966 C3.45383051,11.0489492 3.49830508,10.8829831 3.42345763,10.7533559 C3.34833898,10.6237288 3.18291525,10.5784407 3.05301695,10.6541017 L2.82820339,10.784 C2.46291525,10.0781017 2.24433898,9.28677966 2.20447458,8.44854237 L2.46183051,8.44854237 C2.61152542,8.44854237 2.73301695,8.32732203 2.73301695,8.17735593 C2.73301695,8.02738983 2.61152542,7.90616949 2.46183051,7.90616949 L2.2039322,7.90616949 C2.24379661,7.06766102 2.46237288,6.27633898 2.82766102,5.57071186 L3.05247458,5.70061017 C3.09532203,5.72528814 3.1419661,5.73694915 3.18779661,5.73694915 C3.28162712,5.73694915 3.37274576,5.68813559 3.42291525,5.60135593 C3.49776271,5.47145763 3.45328814,5.30576271 3.32366102,5.23091525 L3.09966102,5.10101695 C3.54115254,4.41654237 4.12447458,3.83322034 4.80894915,3.39172881 L4.93830508,3.61572881 C4.98874576,3.70250847 5.07959322,3.75132203 5.17342373,3.75132203 C5.21925424,3.75132203 5.26589831,3.73966102 5.30874576,3.71498305 C5.43837288,3.64013559 5.48284746,3.47416949 5.408,3.34454237 L5.27810169,3.11972881 C5.984,2.75444068 6.77505085,2.53586441 7.61355932,2.496 L7.61355932,2.75335593 C7.61355932,2.90332203 7.73505085,3.02454237 7.88474576,3.02454237 C8.03444068,3.02454237 8.1559322,2.90332203 8.1559322,2.75335593 L8.1559322,2.496 C8.99444068,2.53559322 9.78549153,2.75444068 10.4913898,3.11972881 L10.3614915,3.34454237 C10.2866441,3.47444068 10.3311186,3.64013559 10.4607458,3.71498305 C10.5035932,3.73966102 10.5502373,3.75132203 10.5960678,3.75132203 C10.6898983,3.75132203 10.7810169,3.70250847 10.8311864,3.61572881 L10.9605424,3.39172881 C11.6452881,3.83322034 12.228339,4.41654237 12.6698305,5.10101695 L12.4458305,5.23037288 C12.3162034,5.30522034 12.2717288,5.47118644 12.3465763,5.60081356 C12.3970169,5.68759322 12.4878644,5.73640678 12.5816949,5.73640678 C12.6275254,5.73640678 12.6741695,5.72474576 12.7170169,5.7000678 L12.9418305,5.57016949 C13.3071186,6.2760678 13.5256949,7.06738983 13.5655593,7.90562712 L13.3082034,7.90562712 C13.1585085,7.90562712 13.0370169,8.02684746 13.0370169,8.17681356 C13.0370169,8.32677966 13.1585085,8.448 13.3082034,8.448 L13.5655593,8.448 C13.5256949,9.28650847 13.3071186,10.0778305 12.9418305,10.7834576 L12.7170169,10.6535593 C12.5868475,10.5781695 12.4214237,10.6234576 12.3465763,10.7528136 C12.2717288,10.8827119 12.3162034,11.0484068 12.4458305,11.1232542 L12.6698305,11.2526102 C12.2288814,11.9376271 11.6458305,12.520678 10.9610847,12.9624407 Z" id="Shape"></path>
                    </g>
                </g>
            </g>
        </g>
    </g>
</svg>