<?xml version="1.0" encoding="UTF-8"?>
<svg width="11px" height="24px" viewBox="0 0 11 24" version="1.1" xmlns="http://www.w3.org/2000/svg" xmlns:xlink="http://www.w3.org/1999/xlink">
    <!-- Generator: sketchtool 61.2 (101010) - https://sketch.com -->
    <title>324DA8BF-F2C9-474A-A5C5-6A57BF87143D</title>
    <desc>Created with sketchtool.</desc>
    <g id="Welcome" stroke="none" stroke-width="1" fill="none" fill-rule="evenodd">
        <g id="Interna-curso-valores-mobile" transform="translate(-190.000000, -5457.000000)" fill="#FFFFFF" fill-rule="nonzero">
            <g id="Group-18" transform="translate(0.000000, 4082.000000)">
                <g id="Group-31" transform="translate(63.000000, 1374.000000)">
                    <path d="M129.334363,5.64803586 C129.334363,6.25284577 129.334363,8.9523659 129.334363,8.9523659 L127,8.9523659 L127,12.9929135 L129.334363,12.9929135 L129.334363,25 L134.12964,25 L134.12964,12.9932483 L137.347494,12.9932483 C137.347494,12.9932483 137.64886,11.0558366 137.794942,8.93746745 C137.376118,8.93746745 134.147773,8.93746745 134.147773,8.93746745 C134.147773,8.93746745 134.147773,6.5868053 134.147773,6.17478238 C134.147773,5.76186668 134.670603,5.20643925 135.187354,5.20643925 C135.703136,5.20643925 136.791734,5.20643925 137.8,5.20643925 C137.8,4.65631277 137.8,2.75550554 137.8,1 C136.453995,1 134.922683,1 134.24769,1 C129.215829,0.999721003 129.334363,5.04428614 129.334363,5.64803586 Z" id="Facebook"></path>
                </g>
            </g>
        </g>
    </g>
</svg>