<?xml version="1.0" encoding="UTF-8"?>
<svg width="16px" height="16px" viewBox="0 0 16 16" version="1.1" xmlns="http://www.w3.org/2000/svg" xmlns:xlink="http://www.w3.org/1999/xlink">
    <!-- Generator: sketchtool 61.2 (101010) - https://sketch.com -->
    <title>697DB230-7167-49CD-959E-938BFC94DDF5</title>
    <desc>Created with sketchtool.</desc>
    <g id="Welcome" stroke="none" stroke-width="1" fill="none" fill-rule="evenodd">
        <g id="Modal-formulario-home" transform="translate(-596.000000, -34.000000)" fill="#065CBE" fill-rule="nonzero">
            <g id="Fechar" transform="translate(538.000000, 32.000000)">
                <path d="M67.4093333,9.99533333 L73.6973333,3.70733333 C74.088,3.317 74.088,2.68366667 73.6973333,2.29333333 C73.3066667,1.90266667 72.674,1.90266667 72.2833333,2.29333333 L65.9953333,8.58133333 L59.707,2.29333333 C59.3163333,1.90266667 58.6836667,1.90266667 58.293,2.29333333 C57.9023333,2.68366667 57.9023333,3.317 58.293,3.70733333 L64.5813333,9.99533333 L58.293,16.2833333 C57.9023333,16.6736667 57.9023333,17.307 58.293,17.6973333 C58.4883333,17.8923333 58.7443333,17.99 59,17.99 C59.2556667,17.99 59.5116667,17.8923333 59.707,17.697 L65.9953333,11.409 L72.2833333,17.697 C72.4786667,17.8923333 72.7346667,17.99 72.9903333,17.99 C73.246,17.99 73.502,17.8923333 73.6973333,17.697 C74.088,17.3066667 74.088,16.6733333 73.6973333,16.283 L67.4093333,9.99533333 Z" id="Shape"></path>
            </g>
        </g>
    </g>
</svg>