<?xml version="1.0" encoding="UTF-8"?>
<svg width="64px" height="64px" viewBox="0 0 64 64" version="1.1" xmlns="http://www.w3.org/2000/svg" xmlns:xlink="http://www.w3.org/1999/xlink">
    <!-- Generator: sketchtool 61.2 (101010) - https://sketch.com -->
    <title>0FA329BF-CF99-4E32-B30C-E1EABE3D55DB</title>
    <desc>Created with sketchtool.</desc>
    <g id="Welcome" stroke="none" stroke-width="1" fill="none" fill-rule="evenodd">
        <g id="Home" transform="translate(-361.000000, -2248.000000)" fill="#000000" fill-rule="nonzero">
            <g id="Group-7" transform="translate(0.000000, 1968.000000)">
                <g id="Group-3" transform="translate(337.000000, 232.000000)">
                    <g id="Group-9">
                        <g id="goal" transform="translate(24.000000, 48.000000)">
                            <path d="M63.4566161,8.60351562 L60.4191974,6.1953125 L63.4566161,3.78759763 C63.9289588,3.41259763 64.090564,2.828125 63.8687636,2.2978515 C63.6458786,1.76708988 63.0954447,1.42431638 62.4658352,1.42431638 L49.8964208,1.42431638 L49.8964208,0.93798825 C49.8964208,0.419921875 49.4300433,1.11022302e-16 48.8546638,1.11022302e-16 C48.2792842,1.11022302e-16 47.8129068,0.419921875 47.8129068,0.93798825 L47.8129068,13.5883789 L39.25705,17.7714844 C39.2098699,17.4326172 39.0970716,17.0996094 38.9186552,16.7861328 L37.7131237,14.6669923 C36.8855748,13.211914 34.8975055,12.6352539 33.2825379,13.3798828 L32.3503254,13.8095703 C31.567245,14.1708985 30.9875271,14.7841798 30.7174621,15.538086 C30.4473969,16.2915039 30.5195228,17.0947265 30.9208242,17.7993164 L32.1263557,19.9189453 C32.4078091,20.4135742 32.8237527,20.8051758 33.3129067,21.0795899 C32.6729935,21.8554688 32.3693058,22.8095703 32.0569414,23.8007812 L31.8324295,24.5166015 C31.6757049,25.0151368 31.9978308,25.5336914 32.5515184,25.6743164 C32.6458786,25.6987305 32.7413232,25.709961 32.835141,25.709961 C33.2895878,25.709961 33.7071584,25.4404298 33.8373102,25.0268555 L34.0618221,24.3125 C34.5184382,22.862793 34.7988069,22.0864258 35.6914317,21.6499024 L37.2917571,20.8671875 L37.4891539,20.7763672 C37.5547723,20.7460938 37.6160521,20.711914 37.6784165,20.6782226 L49.0840564,15.1015625 C49.0119305,16.3852539 48.244577,17.5981445 46.9810195,18.2890625 L39.5639913,22.3466797 C39.5553145,22.3510742 39.5466377,22.3554688 39.5385032,22.3603515 L37.2299349,23.6230469 C36.7386116,23.8920899 36.5818872,24.4692383 36.8806941,24.9121094 C37.1621475,25.3295899 37.7478308,25.4780274 38.2255965,25.2685548 L36.4739696,30.0361328 L35.1936008,30.508789 L31.712039,31.793457 L32.7152929,28.6000976 C32.8714751,28.1015625 32.5498916,27.5830078 31.9962039,27.4418945 C31.441974,27.300293 30.8665944,27.5908203 30.7098698,28.0893555 L29.1247288,33.1367188 C29.1041215,33.2016601 29.090564,33.2729493 29.0873102,33.3408203 L28.6724512,40.2021485 C28.6599783,40.4638672 28.7218005,40.9584961 28.5873102,41.2138672 L23.979935,49.9414063 L20.6317787,49.9414063 C18.670282,49.9414063 17.0748374,51.3779298 17.0748374,53.1435548 L17.0748374,55.8510743 C16.6258134,55.6660156 16.1274404,55.5625 15.6019522,55.5625 L7.09924082,55.5625 C5.13828637,55.5625 3.54284161,56.9985351 3.54284161,58.7646485 L3.54284161,62.1240235 L1.04175702,62.1240235 C0.46637744,62.1240235 1.59062929e-14,62.5439453 1.59062929e-14,63.0620117 C1.59062929e-14,63.5800781 0.46637744,64 1.04175702,64 L62.4647505,64 C63.0401302,64 63.5065075,63.5800781 63.5065075,63.0620117 C63.5065075,62.5439452 63.0401302,62.1240235 62.4647505,62.1240235 L59.755423,62.1240235 L59.755423,37.9467774 C59.755423,36.1811524 58.1599783,34.7446289 56.1990239,34.7446289 L49.8964208,34.7446289 L49.8964208,18.3808594 C51.0515185,16.9711914 51.4793926,15.1235351 50.9430586,13.3676757 C50.8590022,13.0917969 50.639371,12.8652344 50.3465293,12.753418 C50.20282,12.6982422 50.0488069,12.6738281 49.8964208,12.6791992 L49.8964208,10.9667969 L62.4652928,10.9667969 C63.0954447,10.9667969 63.6458786,10.6240235 63.8682212,10.09375 C64.090564,9.5634765 63.9289588,8.97851562 63.4566161,8.60351562 L63.4566161,8.60351562 Z M32.7006508,16.1142578 C32.7998916,15.8374024 33.0124729,15.6118164 33.2998915,15.4794922 L34.2321041,15.0498047 C34.4078091,14.96875 34.5954446,14.9301757 34.7809111,14.9301757 C35.2201735,14.9301757 35.6447939,15.1464844 35.8584599,15.5219726 L37.0645337,17.6416015 C37.3459869,18.1367188 37.1637743,18.7368164 36.6632321,19.040039 L36.3237527,19.2055664 L35.6073753,19.5361328 C35.0146421,19.8095703 34.2847071,19.5976562 33.9810195,19.0634765 L32.7749457,16.944336 C32.6279827,16.6855469 32.6014099,16.390625 32.7006508,16.1142578 L32.7006508,16.1142578 Z M30.6073753,50.2299805 C30.2532538,50.0844726 29.8682212,49.9892578 29.463666,49.9555664 L30.6073753,48.5878906 L30.6073753,50.2299805 Z M35.5536876,42.671875 C36.0547722,42.1313476 36.1930586,41.5 36.3047722,40.991211 C36.3329719,40.8701172 36.8470715,38.3417969 36.8470715,38.3417969 C36.8470715,38.3417969 37.3335141,38.6147461 37.3844902,38.6342774 C37.4197396,38.6484375 37.4446855,38.6796875 37.4484816,38.7163086 L38.0151844,43.9033203 L34.5238612,43.9033203 L35.5536876,42.671875 Z M41.7142082,37.4946289 L40.8345987,43.8989257 L40.1084599,43.8989257 L39.5222343,38.5327149 C39.4473969,37.8452149 38.979935,37.2451172 38.2950108,36.9467774 L37.2472885,36.3486327 L37.9452278,32.8657226 C37.9452278,32.8657226 40.8855748,36.0107422 40.9539046,36.0908203 C41.5623644,36.8032226 41.7706073,37.0883789 41.7142082,37.4946289 Z M30.4614968,42.0341798 C30.6719089,41.4638673 30.7695228,40.8833008 30.7532538,40.2929688 L31.1317788,34.0351563 L35.9501085,32.2573243 L35.074295,36.6254883 C35.0715835,36.637207 35.0688721,36.649414 35.0672451,36.6611328 L34.3427332,40.2729493 C34.248373,40.6469726 34.1659435,41.2143555 33.9067245,41.522461 L26.8671367,49.9414063 L26.2868763,49.9414063 L30.4614968,42.0341798 Z M5.62635578,58.7641601 C5.62635578,58.0332031 6.28687632,57.4384765 7.09924082,57.4384765 L15.6019522,57.4384765 C16.4143167,57.4384765 17.0753796,58.0332031 17.0753796,58.7641601 L17.0753796,62.1240235 L5.62635578,62.1240235 L5.62635578,58.7641601 Z M19.1583514,58.7641601 L19.1583514,53.1435548 C19.1583514,52.4121094 19.8194144,51.8173828 20.6317787,51.8173828 L29.1344902,51.8173828 C29.9468547,51.8173828 30.6073753,52.4121094 30.6073753,53.1435548 L30.6073753,62.1240235 L19.1588937,62.1240235 L19.1588937,58.7641601 L19.1583514,58.7641601 Z M57.6719089,37.9467774 L57.6719089,62.1240235 L46.2234273,62.1240235 L46.2234273,56.5 C46.2234273,55.9819336 45.7570499,55.5620118 45.1816703,55.5620118 C44.6057483,55.5620118 44.1393709,55.9819336 44.1393709,56.5 L44.1393709,62.1240235 L32.6908893,62.1240235 L32.6908893,47.1049805 C32.6908893,46.3740235 33.35141,45.7792969 34.1637745,45.7792969 L42.6664859,45.7792969 C43.4788504,45.7792969 44.1393709,46.3740235 44.1393709,47.1049805 L44.1393709,51.8071289 C44.1393709,52.3251953 44.6057483,52.7451173 45.1811279,52.7451173 C45.7570499,52.7451173 46.2228851,52.3251953 46.2228851,51.8071289 L46.2228851,37.9467774 C46.2228851,37.215332 46.883948,36.6206055 47.6963124,36.6206055 L48.8438178,36.6206055 C48.8470715,36.6206055 48.8508676,36.6210938 48.8546638,36.6210938 C48.8579176,36.6210938 48.8617136,36.6206055 48.8649675,36.6206055 L56.1984816,36.6206055 C57.010846,36.6206055 57.6719089,37.2158203 57.6719089,37.9467774 L57.6719089,37.9467774 Z M47.6963124,34.7446289 C45.7353579,34.7446289 44.1399132,36.1811524 44.1399132,37.9467774 L44.1399132,44.1918945 C43.7668112,44.0385742 43.3600868,43.9414062 42.9322126,43.913086 L43.7819957,37.725586 C43.9490238,36.5195312 43.2657268,35.7202149 42.6052061,34.9467774 C42.5352495,34.8647461 38.4859002,30.5356445 38.4859002,30.5356445 L40.9701735,23.7729493 L47.8129068,20.0297851 L47.8129068,34.7446289 L47.6963124,34.7446289 Z M49.8964208,9.090332 L49.8964208,3.30078125 L60.9175705,3.30078125 L58.5439263,5.18261725 C58.2207159,5.43896488 58.0352494,5.8081055 58.0352494,6.19580075 C58.0352494,6.58349613 58.2207159,6.95263675 58.5439263,7.20898438 L60.9175705,9.09082025 L49.8964208,9.09082025 L49.8964208,9.090332 Z" id="Shape"></path>
                        </g>
                    </g>
                </g>
            </g>
        </g>
    </g>
</svg>