<?xml version="1.0" encoding="UTF-8"?>
<svg width="120px" height="34px" viewBox="0 0 120 34" version="1.1" xmlns="http://www.w3.org/2000/svg" xmlns:xlink="http://www.w3.org/1999/xlink">
    <!-- Generator: sketchtool 61.2 (101010) - https://sketch.com -->
    <title>842B3797-5C62-4BAF-A52A-E2C911339522</title>
    <desc>Created with sketchtool.</desc>
    <g id="Symbols" stroke="none" stroke-width="1" fill="none" fill-rule="evenodd">
        <g id="Header" transform="translate(-360.000000, -23.000000)" fill="#FFFFFF" fill-rule="nonzero">
            <g id="Group">
                <g transform="translate(336.000000, 0.000000)">
                    <path d="M30.9133603,23 L37.6761134,23 L30.7336032,55.6594286 L24,55.6594286 L30.9133603,23 Z M62.0987854,39.218 L58.6251012,55.6594286 L52.217004,55.6594286 L55.3068826,41.0782857 C55.3991903,40.7091429 55.4574899,40.3448571 55.5012146,39.9805714 C55.5449393,39.6162857 55.5692308,39.3005714 55.5692308,39.0188571 C55.5692308,38.1105714 55.3068826,37.4354286 54.7676113,36.9837143 C54.2380567,36.5368571 53.4510121,36.3085714 52.3967611,36.3085714 C50.7838057,36.3085714 49.4137652,36.7554286 48.2769231,37.6491429 C47.1497976,38.5477143 46.4064777,39.7765714 46.0663968,41.3454286 L43.0299595,55.6594286 L36.5781377,55.6594286 L41.7182186,31.5388571 L48.0388664,31.5388571 L47.4024291,34.5745714 C48.6607287,33.3408571 49.9773279,32.418 51.3716599,31.8108571 C52.7562753,31.2037143 54.2331984,30.9025714 55.8024291,30.9025714 C57.8720648,30.9025714 59.5044534,31.3785714 60.7093117,32.3402857 C61.91417,33.302 62.5214575,34.6134286 62.5214575,36.2697143 C62.5214575,36.6631429 62.4923077,37.0808571 62.4291498,37.518 C62.3708502,37.96 62.2639676,38.5185714 62.0987854,39.218 M80.2348178,43.8517143 C79.1902834,44.3131429 77.9076923,44.692 76.411336,44.9931429 C74.9052632,45.2942857 74.011336,45.4837143 73.7295547,45.5614286 C72.7093117,45.8722857 71.9271255,46.3628571 71.3732794,47.038 C70.8291498,47.7131429 70.557085,48.5194286 70.557085,49.4665714 C70.557085,50.1222857 70.7902834,50.6468571 71.2663968,51.016 C71.7376518,51.3851429 72.3935223,51.5697143 73.2437247,51.5697143 C74.8566802,51.5697143 76.2558704,51.0694286 77.4364372,50.0688571 C78.617004,49.0682857 79.3894737,47.7374286 79.7441296,46.0665714 L80.2348178,43.8517143 Z M87.7360324,37.4888571 L84.8259109,51.1908571 C84.7481781,51.6085714 84.6995951,51.9631429 84.6607287,52.2594286 C84.6218623,52.5557143 84.6072874,52.8034286 84.6072874,53.0171429 C84.6072874,53.3862857 84.6607287,53.6825714 84.7821862,53.9011429 C84.9036437,54.1294286 85.1174089,54.348 85.4234818,54.5665714 L85.1805668,55.6545714 L78.5004049,55.6545714 C78.48583,55.5622857 78.4566802,55.4505714 78.4080972,55.3 C78.2866397,54.7268571 78.2283401,54.3237143 78.2283401,54.1051429 C78.2283401,53.9691429 78.242915,53.7894286 78.2672065,53.5611429 C78.291498,53.328 78.3206478,53.0608571 78.3643725,52.75 C77.3441296,53.974 76.1295547,54.9065714 74.7157895,55.5477143 C73.3020243,56.1937143 71.7473684,56.5191429 70.0421053,56.5191429 C68.2251012,56.5191429 66.7773279,56.0577143 65.7036437,55.1397143 C64.6348178,54.2217143 64.1004049,52.988 64.1004049,51.4385714 C64.1004049,48.4174286 64.9165992,46.0762857 66.5538462,44.42 C68.1813765,42.7685714 70.7465587,41.6805714 74.2348178,41.1657143 C74.8032389,41.0734286 75.5659919,40.9617143 76.5425101,40.8305714 C79.7587045,40.4614286 81.3668016,39.3928571 81.3668016,37.62 C81.3668016,36.9545714 81.1044534,36.4688571 80.5651822,36.1677143 C80.0356275,35.8665714 79.1854251,35.7111429 78.0145749,35.7111429 C76.6834008,35.7111429 75.6048583,36.0074286 74.7983806,36.6048571 C73.9821862,37.2022857 73.5109312,38.0425714 73.3748988,39.116 L67.2825911,39.116 C67.7149798,36.5125714 68.9635628,34.4531429 71.0380567,32.9377143 C73.102834,31.4222857 75.7165992,30.6645714 78.8744939,30.6645714 C81.7311741,30.6645714 83.9465587,31.126 85.5303644,32.0488571 C87.11417,32.9717143 87.9060729,34.2685714 87.9060729,35.9248571 C87.9060729,36.192 87.891498,36.4542857 87.8623482,36.7214286 C87.8380567,36.9982857 87.7894737,37.2557143 87.7360324,37.4888571 M96.8696356,25.0011429 L103.321457,25.0011429 L101.9417,31.5437143 L105.954656,31.5437143 L105.002429,36.0851429 L100.945749,36.0851429 L98.1376518,49.4325714 C98.1376518,49.5102857 98.1230769,49.6074286 98.0939271,49.7288571 C98.0647773,49.8551429 98.0502024,49.9425714 98.0502024,49.9862857 C98.0502024,50.3408571 98.2251012,50.5982857 98.5797571,50.7488571 C98.934413,50.9091429 99.5465587,50.982 100.421053,50.982 L101.820243,50.982 L100.775709,55.844 C100.406478,55.8585714 99.9109312,55.8731429 99.2939271,55.8877143 C98.1716599,55.9168571 97.4380567,55.9362857 97.0979757,55.9362857 C95.0283401,55.9362857 93.5465587,55.6545714 92.6477733,55.096 C91.7441296,54.5277143 91.2923077,53.6145714 91.2923077,52.342 C91.2923077,51.9874286 91.3311741,51.56 91.4040486,51.0548571 C91.4720648,50.5545714 91.5935223,49.9134286 91.7587045,49.1265714 L94.5230769,36.09 L91.1076923,36.09 L92.059919,31.5485714 L95.5190283,31.5485714 L96.8696356,25.0011429 Z M127.763563,45.304 L112.217004,45.304 C112.163563,45.6294286 112.119838,45.9451429 112.08583,46.256 C112.05668,46.5668571 112.042105,46.8388571 112.042105,47.072 C112.042105,48.3737143 112.353036,49.3597143 112.979757,50.0251429 C113.606478,50.6905714 114.539271,51.0257143 115.768421,51.0257143 C116.808097,51.0257143 117.682591,50.812 118.421053,50.3991429 C119.154656,49.9765714 119.82996,49.2917143 120.451822,48.3445714 L126.903644,48.3445714 C125.766802,50.8751429 124.071255,52.8568571 121.817004,54.3042857 C119.557895,55.7517143 117.05587,56.4754286 114.291498,56.4754286 C111.551417,56.4754286 109.389474,55.6642857 107.80081,54.0371429 C106.212146,52.41 105.415385,50.2242857 105.415385,47.4654286 C105.415385,45.4982857 105.765182,43.4582857 106.459919,41.3551429 C107.149798,39.252 108.072874,37.4402857 109.22915,35.9248571 C110.555466,34.2005714 112.105263,32.8891429 113.863968,32.0051429 C115.622672,31.1211429 117.561134,30.6742857 119.669636,30.6742857 C122.511741,30.6742857 124.727126,31.4222857 126.325506,32.928 C127.923887,34.4288571 128.715789,36.5077143 128.715789,39.1742857 C128.715789,39.8688571 128.647773,40.6654286 128.506883,41.5688571 C128.37085,42.4771429 128.123077,43.7205714 127.763563,45.304 M122.084211,41.0782857 C122.127935,40.7237143 122.166802,40.4128571 122.191093,40.1408571 C122.215385,39.8688571 122.220243,39.6502857 122.220243,39.49 C122.220243,38.4165714 121.909312,37.5762857 121.282591,36.974 C120.651012,36.3765714 119.766802,36.0802857 118.62996,36.0802857 C117.31336,36.0802857 116.191093,36.5028571 115.2583,37.3528571 C114.325506,38.2028571 113.616194,39.4414286 113.130364,41.0782857 L122.084211,41.0782857 Z M137.130364,23 L143.582186,23 L136.615385,55.6594286 L130.178138,55.6594286 L137.130364,23 Z" id="Shape"></path>
                </g>
            </g>
        </g>
    </g>
</svg>