<?xml version="1.0" encoding="UTF-8"?>
<svg width="120px" height="34px" viewBox="0 0 120 34" version="1.1" xmlns="http://www.w3.org/2000/svg" xmlns:xlink="http://www.w3.org/1999/xlink">
    <!-- Generator: sketchtool 61.2 (101010) - https://sketch.com -->
    <title>0C655B28-FB8B-47B7-9415-29A8F4ED62BC</title>
    <desc>Created with sketchtool.</desc>
    <g id="Symbols" stroke="none" stroke-width="1" fill="none" fill-rule="evenodd">
        <g id="Footer" transform="translate(-336.000000, -553.000000)" fill="#001E40" fill-rule="nonzero">
            <g id="Group-36">
                <g>
                    <g id="Group-24" transform="translate(280.000000, 530.000000)">
                        <g id="Group" transform="translate(56.000000, 23.000000)">
                            <path d="M6.91336032,0 L13.6761134,0 L6.73360324,32.6594286 L0,32.6594286 L6.91336032,0 Z M38.0987854,16.218 L34.6251012,32.6594286 L28.217004,32.6594286 L31.3068826,18.0782857 C31.3991903,17.7091429 31.4574899,17.3448571 31.5012146,16.9805714 C31.5449393,16.6162857 31.5692308,16.3005714 31.5692308,16.0188571 C31.5692308,15.1105714 31.3068826,14.4354286 30.7676113,13.9837143 C30.2380567,13.5368571 29.4510121,13.3085714 28.3967611,13.3085714 C26.7838057,13.3085714 25.4137652,13.7554286 24.2769231,14.6491429 C23.1497976,15.5477143 22.4064777,16.7765714 22.0663968,18.3454286 L19.0299595,32.6594286 L12.5781377,32.6594286 L17.7182186,8.53885714 L24.0388664,8.53885714 L23.4024291,11.5745714 C24.6607287,10.3408571 25.9773279,9.418 27.3716599,8.81085714 C28.7562753,8.20371429 30.2331984,7.90257143 31.8024291,7.90257143 C33.8720648,7.90257143 35.5044534,8.37857143 36.7093117,9.34028571 C37.91417,10.302 38.5214575,11.6134286 38.5214575,13.2697143 C38.5214575,13.6631429 38.4923077,14.0808571 38.4291498,14.518 C38.3708502,14.96 38.2639676,15.5185714 38.0987854,16.218 M56.2348178,20.8517143 C55.1902834,21.3131429 53.9076923,21.692 52.411336,21.9931429 C50.9052632,22.2942857 50.011336,22.4837143 49.7295547,22.5614286 C48.7093117,22.8722857 47.9271255,23.3628571 47.3732794,24.038 C46.8291498,24.7131429 46.557085,25.5194286 46.557085,26.4665714 C46.557085,27.1222857 46.7902834,27.6468571 47.2663968,28.016 C47.7376518,28.3851429 48.3935223,28.5697143 49.2437247,28.5697143 C50.8566802,28.5697143 52.2558704,28.0694286 53.4364372,27.0688571 C54.617004,26.0682857 55.3894737,24.7374286 55.7441296,23.0665714 L56.2348178,20.8517143 Z M63.7360324,14.4888571 L60.8259109,28.1908571 C60.7481781,28.6085714 60.6995951,28.9631429 60.6607287,29.2594286 C60.6218623,29.5557143 60.6072874,29.8034286 60.6072874,30.0171429 C60.6072874,30.3862857 60.6607287,30.6825714 60.7821862,30.9011429 C60.9036437,31.1294286 61.1174089,31.348 61.4234818,31.5665714 L61.1805668,32.6545714 L54.5004049,32.6545714 C54.48583,32.5622857 54.4566802,32.4505714 54.4080972,32.3 C54.2866397,31.7268571 54.2283401,31.3237143 54.2283401,31.1051429 C54.2283401,30.9691429 54.242915,30.7894286 54.2672065,30.5611429 C54.291498,30.328 54.3206478,30.0608571 54.3643725,29.75 C53.3441296,30.974 52.1295547,31.9065714 50.7157895,32.5477143 C49.3020243,33.1937143 47.7473684,33.5191429 46.0421053,33.5191429 C44.2251012,33.5191429 42.7773279,33.0577143 41.7036437,32.1397143 C40.6348178,31.2217143 40.1004049,29.988 40.1004049,28.4385714 C40.1004049,25.4174286 40.9165992,23.0762857 42.5538462,21.42 C44.1813765,19.7685714 46.7465587,18.6805714 50.2348178,18.1657143 C50.8032389,18.0734286 51.5659919,17.9617143 52.5425101,17.8305714 C55.7587045,17.4614286 57.3668016,16.3928571 57.3668016,14.62 C57.3668016,13.9545714 57.1044534,13.4688571 56.5651822,13.1677143 C56.0356275,12.8665714 55.1854251,12.7111429 54.0145749,12.7111429 C52.6834008,12.7111429 51.6048583,13.0074286 50.7983806,13.6048571 C49.9821862,14.2022857 49.5109312,15.0425714 49.3748988,16.116 L43.2825911,16.116 C43.7149798,13.5125714 44.9635628,11.4531429 47.0380567,9.93771429 C49.102834,8.42228571 51.7165992,7.66457143 54.8744939,7.66457143 C57.7311741,7.66457143 59.9465587,8.126 61.5303644,9.04885714 C63.11417,9.97171429 63.9060729,11.2685714 63.9060729,12.9248571 C63.9060729,13.192 63.891498,13.4542857 63.8623482,13.7214286 C63.8380567,13.9982857 63.7894737,14.2557143 63.7360324,14.4888571 M72.8696356,2.00114286 L79.3214575,2.00114286 L77.9417004,8.54371429 L81.9546559,8.54371429 L81.0024291,13.0851429 L76.945749,13.0851429 L74.1376518,26.4325714 C74.1376518,26.5102857 74.1230769,26.6074286 74.0939271,26.7288571 C74.0647773,26.8551429 74.0502024,26.9425714 74.0502024,26.9862857 C74.0502024,27.3408571 74.2251012,27.5982857 74.5797571,27.7488571 C74.934413,27.9091429 75.5465587,27.982 76.4210526,27.982 L77.8202429,27.982 L76.7757085,32.844 C76.4064777,32.8585714 75.9109312,32.8731429 75.2939271,32.8877143 C74.1716599,32.9168571 73.4380567,32.9362857 73.0979757,32.9362857 C71.0283401,32.9362857 69.5465587,32.6545714 68.6477733,32.096 C67.7441296,31.5277143 67.2923077,30.6145714 67.2923077,29.342 C67.2923077,28.9874286 67.3311741,28.56 67.4040486,28.0548571 C67.4720648,27.5545714 67.5935223,26.9134286 67.7587045,26.1265714 L70.5230769,13.09 L67.1076923,13.09 L68.059919,8.54857143 L71.5190283,8.54857143 L72.8696356,2.00114286 Z M103.763563,22.304 L88.217004,22.304 C88.1635628,22.6294286 88.1198381,22.9451429 88.08583,23.256 C88.0566802,23.5668571 88.0421053,23.8388571 88.0421053,24.072 C88.0421053,25.3737143 88.3530364,26.3597143 88.9797571,27.0251429 C89.6064777,27.6905714 90.5392713,28.0257143 91.7684211,28.0257143 C92.8080972,28.0257143 93.6825911,27.812 94.4210526,27.3991429 C95.1546559,26.9765714 95.8299595,26.2917143 96.4518219,25.3445714 L102.903644,25.3445714 C101.766802,27.8751429 100.071255,29.8568571 97.817004,31.3042857 C95.5578947,32.7517143 93.0558704,33.4754286 90.291498,33.4754286 C87.551417,33.4754286 85.3894737,32.6642857 83.8008097,31.0371429 C82.2121457,29.41 81.4153846,27.2242857 81.4153846,24.4654286 C81.4153846,22.4982857 81.7651822,20.4582857 82.459919,18.3551429 C83.1497976,16.252 84.0728745,14.4402857 85.2291498,12.9248571 C86.5554656,11.2005714 88.1052632,9.88914286 89.8639676,9.00514286 C91.6226721,8.12114286 93.5611336,7.67428571 95.6696356,7.67428571 C98.5117409,7.67428571 100.727126,8.42228571 102.325506,9.928 C103.923887,11.4288571 104.715789,13.5077143 104.715789,16.1742857 C104.715789,16.8688571 104.647773,17.6654286 104.506883,18.5688571 C104.37085,19.4771429 104.123077,20.7205714 103.763563,22.304 M98.0842105,18.0782857 C98.1279352,17.7237143 98.1668016,17.4128571 98.1910931,17.1408571 C98.2153846,16.8688571 98.2202429,16.6502857 98.2202429,16.49 C98.2202429,15.4165714 97.9093117,14.5762857 97.2825911,13.974 C96.6510121,13.3765714 95.7668016,13.0802857 94.6299595,13.0802857 C93.3133603,13.0802857 92.1910931,13.5028571 91.2582996,14.3528571 C90.3255061,15.2028571 89.6161943,16.4414286 89.1303644,18.0782857 L98.0842105,18.0782857 Z M113.130364,0 L119.582186,0 L112.615385,32.6594286 L106.178138,32.6594286 L113.130364,0 Z" id="Shape"></path>
                        </g>
                    </g>
                </g>
            </g>
        </g>
    </g>
</svg>