<?xml version="1.0" encoding="UTF-8"?>
<svg width="12px" height="16px" viewBox="0 0 12 16" version="1.1" xmlns="http://www.w3.org/2000/svg" xmlns:xlink="http://www.w3.org/1999/xlink">
    <!-- Generator: sketchtool 61.2 (101010) - https://sketch.com -->
    <title>06DE618E-330F-492B-A9B8-2885A2241193</title>
    <desc>Created with sketchtool.</desc>
    <g id="Welcome" stroke="none" stroke-width="1" fill="none" fill-rule="evenodd">
        <g id="Home-tooltip" transform="translate(-521.000000, -1197.000000)" fill="#FFFFFF" fill-rule="nonzero">
            <g id="Cursos" transform="translate(280.000000, 552.000000)">
                <g id="Group-30" transform="translate(225.000000, 620.000000)">
                    <g id="Group-29" transform="translate(16.000000, 24.000000)">
                        <g id="maps-and-flags" transform="translate(0.000000, 1.000000)">
                            <path d="M5.8125,0 C2.61734375,0 0.01790625,2.5994375 0.01790625,5.7945625 C0.01790625,9.7598125 5.2035,15.5810312 5.42428125,15.8269063 C5.63165625,16.057875 5.99371875,16.0574688 6.20071875,15.8269063 C6.4215,15.5810313 11.6070937,9.7598125 11.6070937,5.7945625 C11.6070937,2.5994375 9.007625,0 5.8125,0 Z M5.8125,14.6790312 C4.06728125,12.6059687 1.06140625,8.516 1.06140625,5.794625 C1.06140625,3.1748125 3.19271875,1.0435 5.8125,1.0435 C8.43228125,1.0435 10.5635937,3.1748125 10.5635937,5.79459375 C10.5635937,8.51609375 7.55815625,12.6053125 5.8125,14.6790312 Z" id="Shape"></path>
                            <path d="M5.8125,2.8791875 C4.2049375,2.8791875 2.897125,4.18703125 2.897125,5.79459375 C2.897125,7.40215625 4.20496875,8.71 5.8125,8.71 C7.42003125,8.71 8.72784375,7.40215625 8.72784375,5.79459375 C8.72784375,4.18703125 7.42003125,2.8791875 5.8125,2.8791875 Z M5.8125,7.6665 C4.7803125,7.6665 3.940625,6.82678125 3.940625,5.79459375 C3.940625,4.76240625 4.78034375,3.9226875 5.8125,3.9226875 C6.84465625,3.9226875 7.684375,4.76240625 7.684375,5.79459375 C7.684375,6.82678125 6.84465625,7.6665 5.8125,7.6665 Z" id="Shape"></path>
                        </g>
                    </g>
                </g>
            </g>
        </g>
    </g>
</svg>