<?xml version="1.0" encoding="UTF-8"?>
<svg width="16px" height="16px" viewBox="0 0 16 16" version="1.1" xmlns="http://www.w3.org/2000/svg" xmlns:xlink="http://www.w3.org/1999/xlink">
    <!-- Generator: sketchtool 61.2 (101010) - https://sketch.com -->
    <title>EA82AE3A-EBC4-457C-9A85-217265C1261D</title>
    <desc>Created with sketchtool.</desc>
    <g id="Welcome" stroke="none" stroke-width="1" fill="none" fill-rule="evenodd">
        <g id="Home" transform="translate(-678.000000, -1151.000000)" fill="#000000" fill-rule="nonzero">
            <g id="Cursos" transform="translate(280.000000, 552.000000)">
                <g id="Card-Copy-5" transform="translate(374.000000, 260.000000)">
                    <g id="Group-4-Copy" transform="translate(24.000000, 338.000000)">
                        <g id="shuttle" transform="translate(0.000000, 1.000000)">
                            <path d="M15.9812523,1.19442928 C15.9465961,0.558869107 15.4411275,0.0534647099 14.8055653,0.0187773371 C13.5231282,-0.0512849061 11.013629,0.0168710941 8.61400486,1.25802279 C7.39072403,1.89077047 6.09697447,2.96354779 5.06450607,4.20129325 C5.05178733,4.2165432 5.03941233,4.23188689 5.02678734,4.24716809 L2.68366314,4.42816742 C2.29797577,4.45797981 1.95444463,4.66013532 1.74113221,4.98275914 L0.142570252,7.40062528 C-0.0192109424,7.64531188 -0.0449296836,7.95152951 0.0737265259,8.21974727 C0.192413985,8.48799629 0.436288902,8.6749331 0.726132553,8.71983919 L2.70022563,9.02558807 C2.69325688,9.06396293 2.68625688,9.10230654 2.67985064,9.1406814 C2.61413191,9.53380496 2.74438186,9.93799097 3.02831927,10.2218962 L5.77806833,12.9716674 C6.0134745,13.2070727 6.33156814,13.3368535 6.65750553,13.3368535 C6.72463051,13.3368535 6.79213048,13.3313223 6.85931796,13.3201036 C6.89769295,13.3136973 6.93603669,13.3066974 6.97441167,13.2997286 L7.28016157,15.2738464 C7.3250678,15.5636891 7.51200524,15.8075945 7.78019265,15.9262503 C7.89178636,15.9756251 8.00988007,16 8.12744253,16 C8.29253622,16 8.45647367,15.9519064 8.59934862,15.857438 L11.0172228,14.2588501 C11.3398789,14.0455072 11.5420039,13.7019772 11.5717539,13.3163223 L11.7527538,10.9732372 C11.768035,10.9606122 11.78341,10.9482373 11.79866,10.9355186 C13.0364409,9.9030536 14.109253,8.60930834 14.7419715,7.38600033 C15.9831898,4.98629038 16.0512211,2.47676833 15.9812523,1.19442928 Z M10.5001917,13.4767905 L8.18734876,15.0059411 L7.88934886,13.0820419 C8.86684853,12.7946368 9.83381695,12.3343259 10.7550354,11.7176719 L10.6371292,13.2440726 C10.6297854,13.339291 10.5798479,13.4241344 10.5001917,13.4767905 L10.5001917,13.4767905 Z M6.44097435,12.3087635 L3.69119404,9.55899236 C3.62103782,9.48880512 3.58860033,9.39021173 3.60450657,9.29524333 C3.68625654,8.80640137 3.81328775,8.34105933 3.9705377,7.90268593 L8.09641129,12.0285458 C7.56991147,12.2171389 7.09831788,12.3296385 6.70472426,12.3954507 C6.6095993,12.4112632 6.51113058,12.3789195 6.44097435,12.3087635 Z M2.75588186,5.36288275 L4.28225634,5.24497693 C3.66556905,6.1661923 3.20525671,7.13315751 2.91785056,8.11065392 L0.993976212,7.81268626 L2.52316319,5.49981974 C2.57585067,5.42013254 2.66069439,5.37022647 2.75588186,5.36288275 L2.75588186,5.36288275 Z M11.1982227,10.2155525 C10.4409417,10.8472064 9.70584824,11.3040797 9.02828597,11.6346723 L4.36513131,6.9715331 C4.79819366,6.08703634 5.32672473,5.35050779 5.78441208,4.8018223 C6.7398805,3.65635775 7.92822385,2.66820512 9.04475472,2.09070724 C11.2470665,0.951555168 13.5674094,0.890211642 14.754534,0.954836405 C14.911659,0.963398874 15.0366277,1.08836717 15.0451902,1.24552284 C15.1099089,2.43264349 15.0484402,4.75294748 13.9092843,6.95528316 C13.3318158,8.07177906 12.3436598,9.26008721 11.1982227,10.2155525 Z" id="Shape"></path>
                            <path d="M10.9677574,7.35483868 C11.5624198,7.3547767 12.15733,7.12828851 12.6100625,6.67534312 C13.0487661,6.23646415 13.2903226,5.65292399 13.2903226,5.03226579 C13.2903226,4.41160759 13.0487352,3.82806743 12.6100625,3.38918847 C11.7044736,2.48314275 10.2309793,2.48320472 9.32545235,3.38918847 C8.8867487,3.82806743 8.64516129,4.41160759 8.64516129,5.03226579 C8.64516129,5.65292399 8.88677967,6.23646415 9.32545235,6.67534312 C9.77827777,7.12838146 10.3728782,7.35490064 10.9677574,7.35483868 Z M9.98233102,4.046407 C10.2539891,3.77459019 10.6108423,3.63869728 10.9676955,3.63869728 C11.3245796,3.63869728 11.6814328,3.77459019 11.9530909,4.046407 C12.2162945,4.30973438 12.3612284,4.65984609 12.3612284,5.03223481 C12.3612284,5.40462353 12.2162945,5.75476622 11.9530909,6.0180936 C11.4097747,6.56169624 10.5256472,6.56166525 9.98230006,6.0180936 C9.71909644,5.75476622 9.57413161,5.40465451 9.57413161,5.03226579 C9.57413161,4.65987707 9.71912741,4.30973438 9.98233102,4.046407 Z" id="Shape"></path>
                            <path d="M0.465645643,13.1612903 C0.584823858,13.1612903 0.704002072,13.1158427 0.794899131,13.0248852 L2.31522075,11.5045925 C2.49707696,11.3227397 2.49707696,11.0279197 2.31522075,10.846067 C2.13339558,10.6642142 1.83853893,10.6642142 1.65668273,10.846067 L0.136392155,12.3663597 C-0.0454640518,12.5482125 -0.0454640518,12.8430325 0.136392155,13.0248852 C0.227289215,13.1158116 0.346467429,13.1612903 0.465645643,13.1612903 Z" id="Path"></path>
                            <path d="M3.73398762,12.2660156 C3.55137344,12.0833711 3.25523728,12.0833711 3.07259192,12.2660156 L0.136984019,15.2016399 C-0.0456613397,15.3842843 -0.0456613397,15.6803878 0.136984019,15.8630323 C0.228306698,15.9543545 0.347970899,16 0.467666278,16 C0.587361657,16 0.707057037,15.9543545 0.798348537,15.8630011 L3.73395644,12.927408 C3.91663298,12.7447635 3.91663298,12.44866 3.73398762,12.2660156 Z" id="Path"></path>
                            <path d="M4.49542345,13.6847767 L2.97510183,15.2050694 C2.79324563,15.3869222 2.79324563,15.6817422 2.97510183,15.8635949 C3.06602994,15.9545213 3.18520815,16 3.30435532,16 C3.42350249,16 3.54271175,15.9545523 3.63360881,15.8635949 L5.15393043,14.3433022 C5.33578663,14.1614494 5.33578663,13.8666294 5.15393043,13.6847767 C4.97210526,13.5029239 4.67724861,13.5029239 4.49542345,13.6847767 Z" id="Path"></path>
                        </g>
                    </g>
                </g>
            </g>
        </g>
    </g>
</svg>