<?xml version="1.0" encoding="UTF-8"?>
<svg width="64px" height="64px" viewBox="0 0 64 64" version="1.1" xmlns="http://www.w3.org/2000/svg" xmlns:xlink="http://www.w3.org/1999/xlink">
    <!-- Generator: sketchtool 61.2 (101010) - https://sketch.com -->
    <title>73F8EA91-A167-4050-9CF3-C2359C408416</title>
    <desc>Created with sketchtool.</desc>
    <g id="Welcome" stroke="none" stroke-width="1" fill="none" fill-rule="evenodd">
        <g id="Home" transform="translate(-679.000000, -2248.000000)" fill="#000000" fill-rule="nonzero">
            <g id="Group-7" transform="translate(0.000000, 1968.000000)">
                <g id="Group-3" transform="translate(337.000000, 232.000000)">
                    <g id="Group-9-Copy" transform="translate(318.000000, 0.000000)">
                        <g id="target-(2)" transform="translate(24.000000, 48.000000)">
                            <path d="M46.879375,28.1405 C46.572875,27.365 45.69575,26.98525 44.92,27.2915 C44.1445,27.598125 43.7645,28.475375 44.071,29.250875 C44.838375,31.1915 45.22725,33.2425 45.22725,35.347125 C45.22725,44.489625 37.789375,51.92775 28.646625,51.92775 C19.50325,51.92775 12.064375,44.489625 12.064375,35.347125 C12.064375,26.204625 19.50325,18.7665 28.646625,18.7665 C30.758625,18.7665 32.813125,19.157875 34.753125,19.92975 C35.52775,20.238375 36.405875,19.85975 36.71425,19.085125 C37.022625,18.31025 36.644375,17.43225 35.869625,17.124 C33.572875,16.21 31.142625,15.746625 28.64675,15.746625 C17.83825,15.746625 9.044625,24.53925 9.044625,35.347 C9.044625,46.15475 17.837875,54.9475 28.646625,54.9475 C39.45425,54.9475 48.247,46.154875 48.247,35.347125 C48.247,32.86075 47.78675,30.43625 46.879375,28.1405 Z" id="Path"></path>
                            <path d="M56.18825,27.450875 C55.958875,26.649125 55.1235,26.18575 54.32125,26.414625 C53.5195,26.644125 53.055625,27.48 53.285,28.281625 C53.9395,30.569375 54.271375,32.946625 54.271375,35.346875 C54.271375,49.477375 42.776125,60.973625 28.6465,60.973625 C14.516,60.973625 3.019875,49.4775 3.019875,35.346875 C3.019875,21.21625 14.515875,9.720375 28.6465,9.720375 C31.05225,9.720375 33.4335,10.05375 35.72375,10.711375 C36.525375,10.941375 37.361625,10.478375 37.591625,9.67675 C37.82175,8.875125 37.358625,8.038875 36.557,7.808875 C33.995875,7.073375 31.33425,6.700375 28.6465,6.700375 C12.85075,6.700375 0,19.55125 0,35.347 C0,51.14275 12.85075,63.993625 28.6465,63.993625 C44.44125,63.993625 57.29125,51.142875 57.29125,35.347 C57.29125,32.6655 56.920125,30.008875 56.18825,27.450875 Z" id="Path"></path>
                            <path d="M39.15975,34.425125 C39.08575,33.5945 38.351875,32.9845 37.521625,33.055375 C36.691,33.1295 36.077625,33.863 36.151875,34.693625 C36.171,34.908625 36.18075,35.1285 36.18075,35.347125 C36.18075,39.50175 32.80075,42.8815 28.646375,42.8815 C24.490875,42.8815 21.110125,39.5015 21.110125,35.347125 C21.110375,31.1915 24.491,27.810875 28.6465,27.810875 C28.878625,27.810875 29.105875,27.821 29.32225,27.840875 C30.153375,27.917125 30.887875,27.306375 30.9645,26.475875 C31.041,25.6455 30.429875,24.910375 29.5995,24.833625 C29.2915,24.80525 28.970875,24.790875 28.646625,24.790875 C22.826,24.790875 18.0905,29.526125 18.0905,35.346875 C18.0905,41.166625 22.826,45.901125 28.646625,45.901125 C34.46625,45.901125 39.200875,41.166625 39.200875,35.346875 C39.200875,35.03925 39.187,34.728875 39.15975,34.425125 Z" id="Path"></path>
                            <path d="M63.768625,10.158 C63.2995,9.02525 62.204,8.29325 60.977875,8.29325 L55.713,8.29325 L55.713,3.0285 C55.713,1.80225 54.981,0.706875 53.84825,0.23775 C52.716,-0.23125 51.424375,0.025875 50.557625,0.892625 L41.760625,9.68975 C40.905375,10.544875 40.4345,11.682125 40.4345,12.892 L40.4345,21.436375 L28.16325,33.707625 C27.573625,34.29725 27.573625,35.253375 28.16325,35.843125 C28.458,36.137875 28.8445,36.285375 29.230875,36.285375 C29.61725,36.285375 30.00375,36.137875 30.2985,35.843125 L42.569875,23.57175 L51.11425,23.57175 C52.324125,23.57175 53.4615,23.10075 54.3165,22.24575 L63.113625,13.448375 C63.980625,12.5815 64.237625,11.290125 63.768625,10.158 Z M43.454375,12.891875 C43.4545,12.48875 43.611375,12.10975 43.896125,11.825125 L52.693125,3.029375 L52.693125,9.177875 L43.45425,18.41675 L43.45425,12.891875 L43.454375,12.891875 Z M52.18125,20.11025 C51.90075,20.39075 51.51175,20.551875 51.114375,20.551875 L45.589875,20.551875 L54.8285,11.31325 L60.9775,11.314 L52.18125,20.11025 Z" id="Shape"></path>
                        </g>
                    </g>
                </g>
            </g>
        </g>
    </g>
</svg>