<?xml version="1.0" encoding="UTF-8"?>
<svg width="64px" height="64px" viewBox="0 0 64 64" version="1.1" xmlns="http://www.w3.org/2000/svg" xmlns:xlink="http://www.w3.org/1999/xlink">
    <!-- Generator: sketchtool 61.2 (101010) - https://sketch.com -->
    <title>B12C0852-0FC2-475C-B083-63D346DE32D7</title>
    <desc>Created with sketchtool.</desc>
    <g id="Welcome" stroke="none" stroke-width="1" fill="none" fill-rule="evenodd">
        <g id="Home" transform="translate(-679.000000, -2588.000000)" fill="#000000" fill-rule="nonzero">
            <g id="Group-7" transform="translate(0.000000, 1968.000000)">
                <g id="Group-3" transform="translate(337.000000, 232.000000)">
                    <g id="Group-9-Copy-3" transform="translate(318.000000, 340.000000)">
                        <g id="team-(4)" transform="translate(24.000000, 48.000000)">
                            <path d="M64,26.8387097 L61.6804436,26.8387097 L58.2232863,28.6577621 C57.8341734,28.4430444 57.4294355,28.2610888 56.9929435,28.1517137 L52.6441533,27.0635081 L52.6441533,26.5690524 C54.5680444,25.2263105 55.7419355,23.0080645 55.7419355,20.6451613 L55.7419355,18.8407258 C55.7419355,14.8306452 52.5997985,11.4747985 48.7379032,11.357863 C48.5418347,11.3528226 48.3487903,11.359879 48.1547379,11.3694556 L49.2822581,8.72983871 L43.8160283,3.26512103 L40.5937499,5.36239923 C39.3694556,4.6728831 38.0745968,4.13608877 36.7298387,3.75957665 L35.9339717,0 L28.0670363,0 L27.2711693,3.76058465 C25.9264114,4.13709677 24.6305444,4.6738911 23.4072581,5.36340723 L20.1849799,3.26612903 L14.7232863,8.72782258 L15.8316532,11.3694556 C15.7893146,11.3674395 15.748992,11.359879 15.7066532,11.358871 C13.7298387,11.3014114 11.8679435,12.0226814 10.453629,13.3956653 C9.03729832,14.7676412 8.25806452,16.608871 8.25806452,18.5806452 L8.25806452,20.6451613 C8.25806452,23.0080645 9.43094761,25.2253025 11.3548387,26.5680444 L11.3548387,27.0635081 L8.51814516,27.7726814 L3.37651213,24.7741935 L-1.1001952e-14,24.7741935 L-1.1001952e-14,46.1638105 L10.1552419,49.5483871 L12.1330645,49.5483871 L12.3800403,48.6834677 L15.4929435,50.5519154 C15.5438508,52.2444556 16.9012097,53.6063508 18.5922379,53.6658266 C18.6517137,55.3497985 20.0050403,56.703125 21.6890121,56.7626008 C21.7484879,58.4465726 23.1018145,59.7998992 24.7857863,59.859375 C24.8472782,61.5826613 26.2585685,62.9677419 27.9959677,62.9677419 C28.641129,62.9677419 29.2736895,62.766633 29.8054436,62.4082661 L30.7197581,63.2157258 C31.2928427,63.7202621 32.0307459,64 32.796875,64 L32.9879032,64 C34.7056452,64 36.1033266,62.6113911 36.125,60.8991935 C37.8240928,60.8775201 39.2001008,59.5015121 39.2217742,57.8024194 C40.921875,57.7807459 42.2988911,56.4027218 42.3185484,54.7026209 C44.0342742,54.6622983 45.4193548,53.2605846 45.4193548,51.5352823 C45.4193548,51.4314516 45.4143146,51.329133 45.4037298,51.2258065 L64,41.9284274 L64,26.8387097 Z M53.6774194,18.8407258 L53.6774194,20.6451613 C53.6774194,22.4773186 52.6875,24.1890121 51.0937499,25.1118952 L50.5776209,25.4102823 L50.5816532,28.6769154 L55.7389112,29.9652218 L44.3870968,35.9400201 L44.3870968,33.1592742 C44.3870968,31.7716734 43.8266129,30.501008 42.9087702,29.561996 L46.4516129,28.6769154 L46.4516129,25.4077621 L45.9364919,25.109879 C44.3437499,24.1890121 43.3548387,22.4773186 43.3548387,20.6451613 L43.3548387,18.5806452 C43.3548387,17.1728831 43.9112903,15.8563508 44.9228831,14.876008 C45.9334677,13.8961693 47.2741935,13.3679435 48.6759072,13.4223791 C51.4334677,13.5050403 53.6774194,15.9359879 53.6774194,18.8407258 Z M33.5564516,35.1285283 L28.8835685,33.6350806 C26.7540323,32.9526209 24.4490928,32.8508065 22.2691533,33.3336694 L21.6774194,33.4647177 L21.6774194,33.1592742 C21.6774194,31.7358871 22.6426412,30.5 24.0226814,30.1542338 L29.9354839,28.6769154 L29.9354839,25.4077621 L29.4203628,25.109879 C27.8276209,24.1890121 26.8387097,22.4773186 26.8387097,20.6451613 L26.8387097,18.5806452 C26.8387097,17.1728831 27.3951613,15.8563508 28.4067541,14.876008 C29.4173387,13.8961693 30.766633,13.3679435 32.1597782,13.4223791 C34.9173387,13.5050403 37.1612903,15.9359879 37.1612903,18.8407258 L37.1612903,20.6451613 C37.1612903,22.4773186 36.171371,24.1890121 34.5776209,25.1118952 L34.0614919,25.4102823 L34.0655241,28.6769154 L39.9773186,30.1542338 C41.3573588,30.5 42.3225806,31.7358871 42.3225806,33.1592742 L42.3225806,37.0272178 L42.0675404,37.1612903 L41.4349799,37.1612903 L35.0887097,35.3477822 C34.5887097,35.2061492 34.0735886,35.1481855 33.5564516,35.1285283 L33.5564516,35.1285283 Z M21.9087702,15.4495968 C23.8472782,11.6935484 27.748992,9.29032258 32,9.29032258 C36.2106854,9.29032258 40.0957662,11.6612903 42.0488911,15.3664315 C41.5574596,16.3518145 41.2903226,17.4430444 41.2903226,18.5806452 L41.2903226,20.6451613 C41.2903226,23.0080645 42.4632057,25.2253025 44.3870968,26.5680444 L44.3870968,27.0635081 L40.2580645,28.0972782 L36.1280243,27.0635081 L36.1280243,26.5690524 C38.0519154,25.2263105 39.2258065,23.0080645 39.2258065,20.6451613 L39.2258065,18.8407258 C39.2258065,14.8306452 36.0836694,11.4747985 32.2217742,11.357863 C30.2459677,11.2998992 28.3830645,12.0216734 26.9687499,13.3946573 C25.5534274,14.7676412 24.7741935,16.608871 24.7741935,18.5806452 L24.7741935,20.6451613 C24.7741935,23.0080645 25.9470766,25.2253025 27.8709677,26.5680444 L27.8709677,27.0635081 L23.7419355,28.0972782 L19.6118952,27.0635081 L19.6118952,26.5690524 C21.5357863,25.2263105 22.7096774,23.0080645 22.7096774,20.6451613 L22.7096774,18.8407258 C22.7096774,17.626008 22.4173387,16.4727822 21.9087702,15.4495968 L21.9087702,15.4495968 Z M17.1612903,9.20665316 L20.4591734,5.90877019 L23.3618952,7.7978831 L23.9173387,7.45715729 C25.3089717,6.60433471 26.813004,5.97983871 28.3870968,5.60332658 L29.0221774,5.4511089 L29.7404234,2.06451613 L34.2605846,2.06451613 L34.9768145,5.45010077 L35.6118952,5.60181445 C37.1859879,5.97883071 38.6900201,6.60332658 40.0816532,7.45614916 L40.6370968,7.79687497 L43.5398186,5.90776206 L46.8336694,9.2026209 L45.6628025,11.9440524 C44.8659275,12.2867943 44.1270161,12.7691533 43.483871,13.3926412 C43.4415323,13.4339717 43.4052419,13.4783266 43.3639112,13.5206653 C40.9319556,9.65473794 36.6325605,7.22580645 32,7.22580645 C27.3341734,7.22580645 23.0226814,9.67741935 20.5967742,13.5826613 C19.9475806,12.9032258 19.1754032,12.3528226 18.3195564,11.9682459 L17.1612903,9.20665316 Z M13.4193548,28.6769154 L13.4193548,25.4077621 L12.9042338,25.109879 C11.3114919,24.1890121 10.3225806,22.4773186 10.3225806,20.6451613 L10.3225806,18.5806452 C10.3225806,17.1728831 10.8790323,15.8563508 11.890625,14.876008 C12.9012097,13.8961693 14.2449597,13.3679435 15.6436492,13.4223791 C18.4012097,13.5050403 20.6451613,15.9359879 20.6451613,18.8407258 L20.6451613,20.6451613 C20.6451613,22.4773186 19.6552419,24.1890121 18.0614919,25.1118952 L17.5453628,25.4102823 L17.5493951,28.6769154 L21.0912298,29.561996 C20.1733871,30.501008 19.6129032,31.7716734 19.6129032,33.1592742 L19.6129032,33.9238911 L16.3931452,34.6396169 L16.4768145,34.3472782 L16.516129,32.4395161 L11.0720766,29.2636089 L13.4193548,28.6769154 Z M2.06451613,26.8387097 L2.81703626,26.8387097 L10.2409275,31.1688508 L6.49495974,46.1522178 L2.06451613,44.6748992 L2.06451613,26.8387097 Z M10.4899194,47.483871 L8.45816529,46.8069556 L12.0972782,32.2520161 L14.4516129,33.625 L14.4516129,33.9198588 L10.5766129,47.483871 L10.4899194,47.483871 Z M17.5483871,50.4556452 C17.5483871,50.1512097 17.671371,49.8528226 17.8870968,49.6370968 L19.7016129,47.8225806 C19.9173387,47.6068548 20.2157258,47.483871 20.5201613,47.483871 C21.1582661,47.483871 21.6774194,48.0030243 21.6774194,48.641129 C21.6774194,48.9455645 21.5544355,49.2439516 21.3387097,49.4596774 L19.5241935,51.2741935 C19.3084677,51.4899194 19.0100806,51.6129032 18.7056452,51.6129032 C18.0675404,51.6129032 17.5483871,51.0937499 17.5483871,50.4556452 Z M20.6451613,53.5524194 C20.6451613,53.2479839 20.7681452,52.9495968 20.983871,52.733871 L22.7983871,50.9193548 C23.0141129,50.703629 23.3125,50.5806452 23.6169355,50.5806452 C24.2550403,50.5806452 24.7741935,51.0997985 24.7741935,51.7379032 C24.7741935,52.0423387 24.6512097,52.3407258 24.4354839,52.5564516 L22.6209677,54.3709677 C22.4052419,54.5866935 22.1068548,54.7096774 21.8024194,54.7096774 C21.1643146,54.7096774 20.6451613,54.1905241 20.6451613,53.5524194 Z M23.7419355,56.6491935 C23.7419355,56.3447581 23.8649194,56.046371 24.0806452,55.8306452 L25.8951613,54.016129 C26.1108871,53.8004032 26.4092742,53.6774194 26.7137097,53.6774194 C27.3518145,53.6774194 27.8709677,54.1965726 27.8709677,54.8346774 C27.8709677,55.1391129 27.7479839,55.4375 27.5322581,55.6532258 L25.7177419,57.4677419 C25.5020161,57.6834677 25.203629,57.8064516 24.8991935,57.8064516 C24.2610888,57.8064516 23.7419355,57.2872983 23.7419355,56.6491935 Z M27.9959677,60.9032258 C27.357863,60.9032258 26.8387097,60.3840725 26.8387097,59.7459677 C26.8387097,59.4415323 26.9616935,59.1431452 27.1774194,58.9274194 L28.9919355,57.1129032 C29.2076613,56.8971774 29.5060484,56.7741935 29.8104839,56.7741935 C30.4485886,56.7741935 30.9677419,57.2933468 30.9677419,57.9314516 C30.9677419,58.2358871 30.8447581,58.5342742 30.6290323,58.75 L28.8145161,60.5645161 C28.5987903,60.7802419 28.3004032,60.9032258 27.9959677,60.9032258 Z M32.9879032,61.9354839 L32.796875,61.9354839 C32.5337702,61.9354839 32.2817541,61.8397177 32.0856854,61.6658266 L31.3135081,60.984879 L32.0887097,60.2096774 C32.3654234,59.9329637 32.5801412,59.6038307 32.7389112,59.250504 L33.6774194,60.0317541 C33.9228831,60.2363911 34.0645161,60.5378025 34.0645161,60.858871 C34.0645161,61.4526209 33.5816532,61.9354839 32.9879032,61.9354839 L32.9879032,61.9354839 Z M42.2449597,52.6451613 L42.0665323,52.6451613 C41.8074596,52.6451613 41.5544355,52.5534274 41.3563508,52.3870968 L35.7585685,47.7222782 L34.4359879,49.3089717 L39.8719757,53.8382057 C40.1164315,54.0428427 40.2580645,54.3442541 40.2580645,54.6653226 C40.2580645,55.2590725 39.7752015,55.7419355 39.1814516,55.7419355 L38.9561492,55.7419355 C38.7056452,55.7419355 38.4606854,55.6532258 38.2676412,55.4919355 L32.6607863,50.8200605 L31.3382057,52.4067541 L36.7741935,56.9364919 C37.0196573,57.1396169 37.1612903,57.4410283 37.1612903,57.7620968 C37.1612903,58.3558467 36.6784274,58.8387097 36.0846774,58.8387097 C35.6885081,58.8387097 35.3024194,58.6980846 34.9984879,58.4455645 L32.6945564,56.5252015 C32.186996,55.4879032 31.1441533,54.7646169 29.9228831,54.7212702 C29.8634072,53.0372983 28.5100806,51.6839717 26.8261089,51.624496 C26.766633,49.9405241 25.4133065,48.5871975 23.7293347,48.5277218 C23.6688508,46.8044355 22.2575605,45.4193548 20.5201613,45.4193548 C19.671875,45.4193548 18.8417339,45.7631048 18.2419355,46.3629032 L16.4274194,48.1774194 C16.3190524,48.2857863 16.2293347,48.4087702 16.1381048,48.5307459 L12.9672379,46.6280243 L15.7469757,36.8991935 L22.7157258,35.3497985 C24.5438508,34.9410283 26.4712702,35.0297379 28.2540323,35.6003025 L29.7746975,36.0866935 L24.6194556,38.6643146 C23.4415323,39.2545363 22.7096774,40.4395161 22.7096774,41.7570565 L22.7096774,41.9611895 C22.7096774,43.8679435 24.2610888,45.4193548 26.1678427,45.4193548 C26.7943548,45.4193548 27.4107863,45.248992 27.9465726,44.9259072 L31.7903226,42.6209677 C32.5625,42.1582661 33.5987903,42.2595766 34.265625,42.859375 L42.9873992,50.7086694 C43.2207662,50.9203628 43.3548387,51.2207662 43.3548387,51.5352823 C43.3548387,52.1476814 42.8573588,52.6451613 42.2449597,52.6451613 L42.2449597,52.6451613 Z M61.9354839,40.6522178 L44.5448588,49.3482863 C44.4884072,49.2883065 44.4294355,49.2313508 44.3674395,49.1759072 L35.6471774,41.3266129 C34.8830645,40.6370968 33.8951613,40.2580645 32.8659275,40.2580645 C32.1134072,40.2580645 31.374496,40.4627017 30.7273186,40.8508065 L26.8820565,43.1567541 C26.6663306,43.2867943 26.4198588,43.3548387 26.1678427,43.3548387 C25.3986895,43.3548387 24.7741935,42.7303427 24.7741935,41.9611895 L24.7741935,41.7570565 C24.7741935,41.2253025 25.0695564,40.7484879 25.5443548,40.5110888 L31.3024194,37.6320565 C32.2878025,37.1386089 33.4576613,37.0282258 34.5196573,37.3336694 L41.0065524,39.1864919 L42.5776209,39.2258065 L61.9354839,29.0372983 L61.9354839,40.6522178 Z" id="Shape"></path>
                        </g>
                    </g>
                </g>
            </g>
        </g>
    </g>
</svg>