<?xml version="1.0" encoding="UTF-8"?>
<svg width="24px" height="21px" viewBox="0 0 24 21" version="1.1" xmlns="http://www.w3.org/2000/svg" xmlns:xlink="http://www.w3.org/1999/xlink">
    <!-- Generator: sketchtool 61.2 (101010) - https://sketch.com -->
    <title>E74684A7-B0F5-4E34-ADC1-058CCAE0286B</title>
    <desc>Created with sketchtool.</desc>
    <g id="Welcome" stroke="none" stroke-width="1" fill="none" fill-rule="evenodd">
        <g id="Interna-curso-valores-mobile" transform="translate(-225.000000, -5459.000000)" fill="#FFFFFF" fill-rule="nonzero">
            <g id="Group-18" transform="translate(0.000000, 4082.000000)">
                <g id="Group-31" transform="translate(63.000000, 1374.000000)">
                    <path d="M186,5.43471773 C185.117082,5.84823344 184.168219,6.12648684 183.17173,6.2540194 C184.186536,5.60862586 184.970539,4.59222778 185.336895,3.37873429 C184.384369,3.97388689 183.329263,4.40672551 182.208212,4.63860335 C181.31064,3.62993502 180.032056,3 178.614257,3 C175.895893,3 173.690429,5.32650808 173.690429,8.19406344 C173.690429,8.59985038 173.734392,8.99790659 173.818654,9.37664087 C169.726454,9.16022156 166.099527,7.0887796 163.670585,3.94683522 C163.245611,4.71589596 163.003817,5.60862586 163.003817,6.56318985 C163.003817,8.36410718 163.872081,9.95247058 165.194627,10.8838463 C164.38498,10.8567946 163.626622,10.6249168 162.963517,10.2345884 C162.963517,10.2577766 162.963517,10.2770995 162.963517,10.3002878 C162.963517,12.8161616 164.659747,14.9146562 166.912837,15.3938704 C166.498855,15.5136742 166.066555,15.5755082 165.615937,15.5755082 C165.297207,15.5755082 164.989467,15.5445912 164.689056,15.4827571 C165.315524,17.5426049 167.132651,19.0498113 169.286826,19.0884572 C167.605252,20.4835885 165.480385,21.31062 163.17234,21.31062 C162.773012,21.31062 162.384674,21.2874317 162,21.2410561 C164.176157,22.7134811 166.766295,23.5714286 169.546939,23.5714286 C178.603267,23.5714286 183.556403,15.6566652 183.556403,8.7969458 C183.556403,8.56893334 183.55274,8.34478427 183.541749,8.1206362 C184.505266,7.39408566 185.340559,6.47816748 186,5.43471773" id="Shape"></path>
                </g>
            </g>
        </g>
    </g>
</svg>