<?xml version="1.0" encoding="UTF-8"?>
<svg width="64px" height="64px" viewBox="0 0 64 64" version="1.1" xmlns="http://www.w3.org/2000/svg" xmlns:xlink="http://www.w3.org/1999/xlink">
    <!-- Generator: sketchtool 61.2 (101010) - https://sketch.com -->
    <title>911AB601-D2C7-40A5-BFA3-34E2935E5033</title>
    <desc>Created with sketchtool.</desc>
    <g id="Welcome" stroke="none" stroke-width="1" fill="none" fill-rule="evenodd">
        <g id="Home" transform="translate(-361.000000, -2588.000000)" fill="#000000" fill-rule="nonzero">
            <g id="Group-7" transform="translate(0.000000, 1968.000000)">
                <g id="Group-3" transform="translate(337.000000, 232.000000)">
                    <g id="Group-9-Copy-2" transform="translate(0.000000, 340.000000)">
                        <g id="win" transform="translate(24.000000, 48.000000)">
                            <path d="M0.0392561983,59.6978745 L0.885330512,61.5637651 L31.2458678,49.2297571 L36.535124,49.8517207 L38.4390495,55.5521255 L35.90031,57.9362348 C34.9483471,58.7651822 34.6311984,60.1123482 35.160124,61.3562753 L36.2179753,63.9473684 L53.7778925,57.2105263 L52.8259298,54.7231781 C52.4028926,53.479251 51.2391529,52.7540485 49.8641529,52.7540485 L46.3729338,52.7540485 L44.4690083,48.2970648 L49.1234504,46.0172064 C50.6043388,45.291498 51.2391529,43.6330972 50.7102273,42.1821862 L44.6807852,26.3248987 C44.045971,24.6664979 42.2474174,23.9407895 40.554752,24.4590081 C40.554752,24.4590081 40.4493802,24.4590081 40.4493802,24.562753 L36.0061983,26.4281377 L35.3713843,24.8734818 L37.8047521,22.0754048 C39.4969008,20.2095142 40.554752,17.9296558 40.8724173,15.4423076 L43.9400826,11.8147773 C45.9498967,9.53441296 45.5268595,6.1143724 43.1993801,4.14473691 C42.776343,3.8340081 42.3533058,3.52327929 41.9302686,3.31578947 C40.7665289,2.79757085 39.6027893,2.69382594 38.3336778,3.00506066 L38.0160124,2.07186241 C37.4870868,0.413967547 35.5831611,-0.415485798 33.9963843,0.206477733 L11.6756198,8.08350199 C9.98295458,8.70546552 9.13688013,10.4671053 9.77169428,12.0217612 L9.77169428,12.1255061 L10.3006199,13.4726721 C7.55010327,14.7165992 6.28047524,17.8259109 7.23243795,20.520749 C7.9731405,22.5936234 9.87706605,24.0445344 12.0986571,24.3552632 L17.0707644,24.8734818 C19.0805785,26.3248987 21.5134297,27.2575911 23.9467975,27.464575 L27.4375,27.7758097 L28.072314,29.3304656 C27.3316115,29.7449393 26.8026859,30.4706477 26.5914256,31.40334 L25.8507232,34.9271255 L0.0392561983,45.1877531 L0.779958744,47.1568827 L15.5898761,41.3532388 L19.1864669,51.9245952 L0.0392561983,59.6978745 Z M50.7102273,55.3451416 L50.9220041,55.9665993 L37.3811983,61.2525304 L37.0640496,60.6305669 C36.9581612,60.2160931 37.0640496,59.8016194 37.2758265,59.4908906 L40.8724173,56.1740891 L45.4209711,54.7231781 L49.6523761,54.7231781 C50.1813017,54.7231781 50.498967,54.930162 50.7102273,55.3451416 L50.7102273,55.3451416 Z M44.045971,52.8572875 L40.2376033,54.1012146 L38.8626034,50.1629554 C39.4969008,50.2661944 40.0258264,50.1629554 40.554752,49.8517207 L42.3533058,49.0227732 L44.045971,52.8572875 Z M41.1895661,26.1174089 C41.7184918,25.9099191 42.3533058,26.1174089 42.5650827,26.6356275 L43.411157,28.8122469 L38.2277892,30.4706477 L38.8626034,32.4397773 L44.045971,30.7813765 L45.3150826,34.0981781 L40.3434917,35.7560729 L40.9783059,37.7257084 L46.0557851,36.0673077 L47.3254133,39.3836033 L42.4591942,40.9382592 L43.0940083,42.9078947 L48.0655992,41.2494939 L48.5945248,42.59666 C48.8063016,43.1148786 48.5945248,43.6330972 48.0655992,43.840587 L39.7086777,47.8825911 C39.4969008,47.986336 39.2856405,47.986336 39.0738637,47.986336 L31.8806818,47.1568827 L27.9664257,35.6528339 L28.7071281,31.8178138 C28.8130166,31.507085 29.0242769,31.1958502 29.3419422,31.0921053 L41.1895661,26.1174089 Z M41.0836776,5.18117415 C42.776343,5.90688259 43.622934,7.87601218 42.8822314,9.63815786 C42.776343,9.94888667 42.5650827,10.1563765 42.3533058,10.4671053 L41.0836776,12.0217612 C40.9783059,10.9853239 40.7665289,10.0526316 40.4493802,9.01619433 L39.0738637,4.97419025 C39.8145661,4.87044534 40.4493802,4.97419025 41.0836776,5.18117415 L41.0836776,5.18117415 Z M9.34814043,20.0025303 C8.71384304,18.2403846 9.45402896,16.375 11.1466942,15.5455466 L12.6275827,19.069838 C13.1565083,20.3132591 13.8972107,21.5571862 14.7432852,22.5936234 L12.5216941,22.3861336 C11.0408058,22.2823887 9.77169428,21.3496964 9.34814043,20.0025303 Z M24.3698347,25.4954454 C20.0325414,25.0809717 16.2241735,22.3861336 14.6373966,18.3441296 L11.8873968,11.5035425 C11.6756198,10.9853239 11.8873968,10.3633604 12.4163224,10.1563765 L34.7365702,2.27935223 C35.0542355,2.17560732 35.2654958,2.17560732 35.5831611,2.27935223 C35.7944214,2.38309713 36.0061983,2.59008104 36.1120867,2.90131576 L38.4390495,9.74190277 C39.7086777,13.576417 38.8626034,17.722166 36.2179753,20.7277329 L32.938533,24.4590081 L33.8904959,26.9463563 L30.0821281,28.5010122 L29.0242769,25.9099191 L24.3698347,25.4954454 Z M17.59969,40.5237855 L20.0325414,39.5910931 L22.6771695,47.4681174 L24.6869834,46.8461538 L21.9369835,38.7621457 L26.1683885,37.1037449 L29.7649793,47.5718623 L21.196281,51.0956477 L17.59969,40.5237855 Z" id="Shape"></path>
                            <path d="M52.2970042,18.1366397 L52.2970042,19.173077 L54.4127066,19.173077 L54.4127066,18.1366397 C54.4127066,15.2348178 56.7401859,12.9544535 59.7019628,12.9544535 L59.7019628,10.881579 C56.7401859,10.881579 54.4127066,8.60172062 54.4127066,5.69939278 L54.4127066,4.66295553 L52.2970042,4.66295553 L52.2970042,5.69939278 C52.2970042,8.60172062 49.9700414,10.881579 47.007748,10.881579 L47.007748,12.9544535 C49.9700414,12.9544535 52.2970042,15.2348178 52.2970042,18.1366397 Z M53.3548554,9.43066805 C53.9896694,10.4671053 54.8357437,11.2965586 55.893595,11.9180163 C54.8357437,12.5399798 53.9896694,13.3694331 53.3548554,14.4058704 C52.7200413,13.3694331 51.8739669,12.5399798 50.8161157,11.9180163 C51.8739669,11.2965586 52.7200413,10.4671053 53.3548554,9.43066805 L53.3548554,9.43066805 Z" id="Shape"></path>
                            <path d="M5.75154962,38.8653847 L5.75154962,39.9018219 L7.8672521,39.9018219 L7.8672521,38.8653847 C7.8672521,35.9635628 10.1947314,33.6831984 13.1565083,33.6831984 L13.1565083,31.610324 C10.1947314,31.610324 7.8672521,29.3304656 7.8672521,26.4281377 L7.8672521,25.3917005 L5.75154962,25.3917005 L5.75154962,26.4281377 C5.75154962,29.3304656 3.42458684,31.610324 0.462293421,31.610324 L0.462293421,33.6831984 C3.42458684,33.6831984 5.75154962,35.9635628 5.75154962,38.8653847 Z M6.80940086,30.159413 C7.44421488,31.1958502 8.29028919,32.0253036 9.34814043,32.6467612 C8.29028919,33.2687247 7.44421488,34.0981781 6.80940086,35.1346153 C6.17458671,34.0981781 5.3285124,33.2687247 4.27066116,32.6467612 C5.3285124,32.0253036 6.17458671,31.1958502 6.80940086,30.159413 Z" id="Shape"></path>
                            <path d="M58.6441116,26.4281377 L58.6441116,25.3917005 L56.5284091,25.3917005 L56.5284091,26.4281377 C56.5284091,29.3304656 54.2014463,31.610324 51.2391529,31.610324 L51.2391529,33.6831984 C54.2014463,33.6831984 56.5284091,35.9635628 56.5284091,38.8653847 L56.5284091,39.9018219 L58.6441116,39.9018219 L58.6441116,38.8653847 C58.6441116,35.9635628 60.9715909,33.6831984 63.9333678,33.6831984 L63.9333678,31.610324 C60.9715909,31.610324 58.6441116,29.3304656 58.6441116,26.4281377 Z M57.5862604,35.1346153 C56.9514462,34.0981781 56.1053719,33.2687247 55.0475207,32.6467612 C56.1053719,32.0253036 56.9514462,31.1958502 57.5862604,30.159413 C58.2210744,31.1958502 59.0671487,32.0253036 60.1249999,32.6467612 C59.0671487,33.2687247 58.2210744,34.0981781 57.5862604,35.1346153 L57.5862604,35.1346153 Z" id="Shape"></path>
                            <path d="M31.4576447,18.4478745 L32.938533,19.8987854 C38.7567148,14.1983806 33.3615702,5.49240887 33.0444216,5.18117415 L31.2458678,6.32135631 C31.3517562,6.32135631 36.1120867,13.8876518 31.4576447,18.4478745 Z" id="Path"></path>
                        </g>
                    </g>
                </g>
            </g>
        </g>
    </g>
</svg>