<?xml version="1.0" encoding="UTF-8"?>
<svg width="24px" height="17px" viewBox="0 0 24 17" version="1.1" xmlns="http://www.w3.org/2000/svg" xmlns:xlink="http://www.w3.org/1999/xlink">
    <!-- Generator: sketchtool 61.2 (101010) - https://sketch.com -->
    <title>BF1307A5-544C-4840-952F-9E67BCF7F50D</title>
    <desc>Created with sketchtool.</desc>
    <g id="Welcome" stroke="none" stroke-width="1" fill="none" fill-rule="evenodd">
        <g id="Interna-curso-valores-mobile" transform="translate(-273.000000, -5461.000000)" fill="#FFFFFF" fill-rule="nonzero">
            <g id="Group-18" transform="translate(0.000000, 4082.000000)">
                <g id="Group-31" transform="translate(63.000000, 1374.000000)">
                    <path d="M229.015508,5 L214.984492,5 C212.231631,5 210,7.20758271 210,9.93077961 L210,16.8692204 C210,19.5924173 212.231631,21.8 214.984492,21.8 L229.015508,21.8 C231.768369,21.8 234,19.5924173 234,16.8692204 L234,9.93077961 C234,7.20758271 231.768369,5 229.015508,5 Z M225.64453,13.73758 L219.081768,16.8338917 C218.906896,16.916394 218.704901,16.7902715 218.704901,16.5986414 L218.704901,10.2124825 C218.704901,10.018123 218.912206,9.89215489 219.087442,9.98001324 L225.650205,13.2698605 C225.845328,13.3676582 225.841944,13.6444687 225.64453,13.73758 Z" id="Shape"></path>
                </g>
            </g>
        </g>
    </g>
</svg>